<svg version="1.1" xmlns="http://www.w3.org/2000/svg" viewBox="0 0 1327.978652627628 544.1193232006078" width="1327.978652627628" height="544.1193232006078">
  <!-- svg-source:excalidraw -->
  
  <defs>
    <style class="style-fonts">
      @font-face {
        font-family: "Virgil";
        src: url("https://excalidraw.com/Virgil.woff2");
      }
      @font-face {
        font-family: "Cascadia";
        src: url("https://excalidraw.com/Cascadia.woff2");
      }
    </style>
  </defs>
  <rect x="0" y="0" width="1327.978652627628" height="544.1193232006078" fill="#0000"></rect><g stroke-linecap="round" transform="translate(10 435.8501608984284) rotate(0 79.3485353611923 34.9553019212301)"><path d="M4.65 4.04 C4.65 4.04, 4.65 4.04, 4.65 4.04 M4.65 4.04 C4.65 4.04, 4.65 4.04, 4.65 4.04 M1.11 14.22 C6.03 8.01, 10.01 6.13, 11.61 2.14 M1.11 14.22 C4.89 8.73, 8.55 3.99, 11.61 2.14 M0.85 20.61 C5.28 15.19, 7.25 9.62, 17.91 0.99 M0.85 20.61 C5.84 14.44, 11.39 8.88, 17.91 0.99 M1.24 26.26 C8.07 20.12, 12.54 13.08, 23.55 0.6 M1.24 26.26 C10.75 16.54, 18.59 7.07, 23.55 0.6 M0.98 32.65 C9.38 25.8, 14.46 19.05, 28.54 0.96 M0.98 32.65 C11.88 20.6, 22.28 9.06, 28.54 0.96 M1.38 38.3 C9.58 28.34, 21.56 17.3, 34.18 0.56 M1.38 38.3 C9.28 27.93, 19.12 17.36, 34.18 0.56 M1.12 44.69 C8.67 35.27, 15.4 26.96, 39.17 0.92 M1.12 44.69 C16.52 26.1, 32.18 8.6, 39.17 0.92 M0.85 51.09 C16.58 32.74, 35.42 12.62, 44.81 0.53 M0.85 51.09 C10.39 40.2, 20.52 30.07, 44.81 0.53 M1.25 56.74 C14.35 44.97, 23.95 28.96, 49.8 0.89 M1.25 56.74 C11.98 43.88, 23.37 30.77, 49.8 0.89 M2.96 60.87 C21.59 36.23, 42.15 16.91, 55.44 0.49 M2.96 60.87 C17.62 43.08, 31.43 26.62, 55.44 0.49 M4.66 65 C24.56 42.98, 44.72 19.91, 60.43 0.85 M4.66 65 C23.14 45.31, 39.54 24.72, 60.43 0.85 M7.02 68.38 C28.68 40.2, 53.22 13.14, 66.07 0.46 M7.02 68.38 C24 48.86, 40.49 27.84, 66.07 0.46 M11.36 69.5 C28.11 52.61, 41.3 32.26, 71.06 0.82 M11.36 69.5 C34.73 43.72, 57.18 16.74, 71.06 0.82 M15.69 70.61 C34.76 48.97, 56.32 25.37, 76.7 0.42 M15.69 70.61 C37.61 44.17, 60.82 17.83, 76.7 0.42 M20.02 71.73 C31.87 54.97, 46.06 41.22, 81.69 0.78 M20.02 71.73 C41.24 47.15, 63.21 22.69, 81.69 0.78 M25 72.09 C42.3 50.99, 61.76 30.54, 87.33 0.39 M25 72.09 C41.58 52.7, 60.23 33.06, 87.33 0.39 M30.65 71.69 C49.55 50.9, 68.7 27.75, 92.32 0.75 M30.65 71.69 C46.13 54.56, 60.92 36.61, 92.32 0.75 M35.63 72.05 C57.64 45.65, 81.16 19.12, 97.96 0.35 M35.63 72.05 C57.82 46.25, 80.43 21.28, 97.96 0.35 M41.28 71.66 C56.01 55.12, 71.78 35.56, 102.95 0.71 M41.28 71.66 C56.25 52.2, 73.85 33.58, 102.95 0.71 M46.26 72.02 C67.89 46.84, 89.01 21.63, 108.59 0.32 M46.26 72.02 C63.31 53.77, 78.83 35.64, 108.59 0.32 M51.91 71.62 C73.82 46.98, 94.83 21.22, 113.58 0.68 M51.91 71.62 C70.42 50.5, 89.74 27.05, 113.58 0.68 M56.89 71.98 C76.93 49.64, 95.61 26.89, 119.22 0.29 M56.89 71.98 C73.34 53.57, 87.66 36.34, 119.22 0.29 M62.54 71.59 C80.08 51.71, 99.3 30.2, 124.21 0.65 M62.54 71.59 C77.7 53.23, 93.91 37.08, 124.21 0.65 M67.52 71.95 C83.26 54.42, 95.89 36.91, 129.19 1.01 M67.52 71.95 C82.29 55.2, 94.62 39.7, 129.19 1.01 M72.51 72.31 C90.74 51.87, 107.08 34.92, 134.84 0.61 M72.51 72.31 C91.01 50.47, 109.75 30.63, 134.84 0.61 M78.15 71.91 C96.12 52.07, 114.99 30.62, 139.82 0.97 M78.15 71.91 C99.76 46.8, 121.05 22, 139.82 0.97 M83.14 72.27 C103.77 47.84, 125.55 23.18, 144.16 2.09 M83.14 72.27 C104.37 46.46, 127.76 19.37, 144.16 2.09 M88.79 71.88 C102.32 56.28, 116.78 40.39, 149.8 1.69 M88.79 71.88 C114.06 44.89, 137.06 17.2, 149.8 1.69 M93.77 72.24 C114.44 50.24, 132.81 26.07, 153.47 3.56 M93.77 72.24 C116.33 46.98, 137.66 22.16, 153.47 3.56 M99.42 71.85 C121.24 47.49, 144.27 21.26, 156.49 6.19 M99.42 71.85 C121.32 47.07, 143.86 21.01, 156.49 6.19 M104.4 72.21 C119.61 54.27, 139.65 33.62, 158.2 10.32 M104.4 72.21 C120.88 53.53, 138.5 32.65, 158.2 10.32 M110.05 71.81 C120.18 57.9, 133.16 47.87, 159.91 14.45 M110.05 71.81 C119.61 60.36, 130.85 47.22, 159.91 14.45 M115.03 72.17 C131.77 53.41, 146.42 36.76, 159.64 20.85 M115.03 72.17 C130.97 54.28, 148.36 33.75, 159.64 20.85 M120.68 71.78 C131.58 59.44, 142.5 46.08, 159.38 27.25 M120.68 71.78 C135.57 55.69, 148.41 38.47, 159.38 27.25 M125.66 72.14 C136.42 60.89, 144.85 48.43, 159.78 32.89 M125.66 72.14 C133.81 63.17, 142.65 52.33, 159.78 32.89 M131.31 71.74 C140.3 59.03, 153.57 49.64, 159.52 39.29 M131.31 71.74 C137.7 64.95, 142.99 58.08, 159.52 39.29 M136.29 72.1 C140.58 65.67, 147.49 61.12, 159.25 45.69 M136.29 72.1 C144.8 62.91, 153.09 51.54, 159.25 45.69 M142.59 70.95 C145.87 65.31, 150.68 60.65, 158.99 52.08 M142.59 70.95 C146.85 64.03, 153.65 59.97, 158.99 52.08 M148.89 69.8 C152.57 67.13, 153.97 64.39, 158.73 58.48 M148.89 69.8 C153.07 65.21, 155.83 61.58, 158.73 58.48" stroke="#4c6ef5" stroke-width="0.5" fill="none"></path><path d="M17.48 0 M17.48 0 C56.24 0.38, 98.25 0.89, 141.22 0 M17.48 0 C59.34 0.62, 100.82 0.08, 141.22 0 M141.22 0 C153.59 1.91, 158.53 4.55, 158.7 17.48 M141.22 0 C153.58 1.48, 158.69 6.26, 158.7 17.48 M158.7 17.48 C158.08 32.7, 158.2 43.72, 158.7 52.43 M158.7 17.48 C159.31 30.45, 159.47 44.38, 158.7 52.43 M158.7 52.43 C158.97 64.64, 153.34 69.6, 141.22 69.91 M158.7 52.43 C158.7 62.24, 153.18 69.36, 141.22 69.91 M141.22 69.91 C93.37 69.61, 48.09 70.94, 17.48 69.91 M141.22 69.91 C108.02 69.83, 74.65 68.16, 17.48 69.91 M17.48 69.91 C6.21 70.34, -1.1 63.98, 0 52.43 M17.48 69.91 C7.04 67.93, -0.69 66.25, 0 52.43 M0 52.43 C-1.07 39.81, 1.06 29.18, 0 17.48 M0 52.43 C-0.3 45.08, -0.71 35.74, 0 17.48 M0 17.48 C-1.64 6.04, 3.95 0.37, 17.48 0 M0 17.48 C1.61 7.5, 4.07 0.65, 17.48 0" stroke="#fff" stroke-width="1" fill="none"></path></g><g transform="translate(21.70895558824307 463.9530632471984) rotate(0 67.63957977294922 6.852399572460115)"><text x="67.63957977294922" y="0" font-family="Virgil, Segoe UI Emoji" font-size="10.963839315936188px" fill="#fff" text-anchor="middle" style="white-space: pre;" direction="ltr" dominant-baseline="text-before-edge">PDF documents/.pdf files</text></g><g stroke-linecap="round" transform="translate(340.29572048769194 396.50145816647785) rotate(0 41.322736271231804 68.80893251706499)"><path d="M4.84 5.54 C4.84 5.54, 4.84 5.54, 4.84 5.54 M4.84 5.54 C4.84 5.54, 4.84 5.54, 4.84 5.54 M0.65 16.46 C6.14 12.09, 9.25 6.36, 13.11 2.12 M0.65 16.46 C3.96 12.01, 6.66 9.79, 13.11 2.12 M1.04 22.1 C6.67 13.07, 14.23 8.29, 18.75 1.73 M1.04 22.1 C6.3 17.37, 10.84 12.18, 18.75 1.73 M0.78 28.5 C9.39 21.48, 13.67 12.22, 23.74 2.09 M0.78 28.5 C6.21 22.14, 10.41 16.98, 23.74 2.09 M0.52 34.9 C12.1 21.58, 21.68 12.13, 28.73 2.45 M0.52 34.9 C6.43 26.54, 13.82 18.48, 28.73 2.45 M0.91 40.54 C13.81 29.33, 23.56 15.25, 33.72 2.81 M0.91 40.54 C9.73 30.53, 17.09 22.7, 33.72 2.81 M0.65 46.94 C12.13 34.53, 19.8 23.35, 39.36 2.41 M0.65 46.94 C11.51 35.09, 21.07 23.03, 39.36 2.41 M0.39 53.34 C18.28 34.65, 33.82 17.08, 44.35 2.77 M0.39 53.34 C14.8 36.13, 29.48 19.81, 44.35 2.77 M0.78 58.98 C21.47 37.55, 39.23 16.15, 49.99 2.38 M0.78 58.98 C11.13 46.11, 22.04 34.64, 49.99 2.38 M0.52 65.38 C21.54 39.68, 42.99 14.59, 54.98 2.74 M0.52 65.38 C15.48 45.44, 32.52 27.89, 54.98 2.74 M0.92 71.02 C20.03 45.64, 42.66 23.96, 60.62 2.34 M0.92 71.02 C16.22 55.77, 30.54 38.38, 60.62 2.34 M0.66 77.42 C27.05 47.57, 51.59 16.47, 67.57 0.44 M0.66 77.42 C26.32 48.28, 51.3 19.07, 67.57 0.44 M0.39 83.82 C21.05 60.28, 43.56 33.04, 71.25 2.31 M0.39 83.82 C26.7 53.12, 54.77 20.75, 71.25 2.31 M0.79 89.46 C23.45 63, 42.02 41.64, 74.92 4.18 M0.79 89.46 C19.6 70, 37.45 49.95, 74.92 4.18 M0.53 95.86 C29.91 63.79, 60.09 30.85, 78.6 6.05 M0.53 95.86 C17.21 74.29, 36.18 54.57, 78.6 6.05 M0.27 102.26 C25.54 71.27, 50.96 40.97, 80.96 9.43 M0.27 102.26 C25.81 72.35, 50.53 42.96, 80.96 9.43 M0.66 107.9 C17.59 88.29, 39.01 63.67, 83.32 12.81 M0.66 107.9 C21.27 81.33, 44.75 56.9, 83.32 12.81 M0.4 114.3 C25.87 87.47, 50.7 54.71, 83.72 18.45 M0.4 114.3 C22.34 87.71, 46.97 60.1, 83.72 18.45 M2.11 118.43 C17.11 98.97, 36.82 79.64, 85.43 22.58 M2.11 118.43 C26.61 91.46, 49.04 65.23, 85.43 22.58 M2.5 124.07 C34.09 89.94, 63.73 53.18, 85.16 28.98 M2.5 124.07 C34.27 86.21, 67.9 48.86, 85.16 28.98 M4.21 128.21 C27.56 102.89, 50.51 74.57, 84.9 35.38 M4.21 128.21 C33.77 92.39, 65.19 57.2, 84.9 35.38 M5.26 133.1 C34.86 96.54, 64.45 64.48, 85.3 41.02 M5.26 133.1 C32.63 101.59, 59.26 70.75, 85.3 41.02 M9.59 134.21 C31.5 107.86, 56.42 79.22, 85.04 47.42 M9.59 134.21 C37.65 102.88, 65.04 69.69, 85.04 47.42 M13.26 136.08 C38.32 105.18, 64.84 75.17, 84.77 53.82 M13.26 136.08 C28.88 117.7, 45.96 99.75, 84.77 53.82 M16.94 137.95 C37.99 109.28, 63.6 86.68, 85.17 59.46 M16.94 137.95 C44.02 107.9, 69.93 77.35, 85.17 59.46 M21.93 138.31 C39.65 118.65, 55.94 98.63, 84.91 65.86 M21.93 138.31 C42.18 115.15, 63.2 89.75, 84.91 65.86 M27.57 137.92 C44.68 119.94, 56.3 102.57, 85.3 71.5 M27.57 137.92 C41.28 123.25, 55.97 106.62, 85.3 71.5 M32.56 138.28 C43.18 124.08, 54.49 111.07, 85.04 77.9 M32.56 138.28 C52.35 115.76, 72.28 93.17, 85.04 77.9 M37.54 138.64 C46.66 125.77, 59.29 115.99, 84.78 84.3 M37.54 138.64 C49.43 123.87, 62.73 108.27, 84.78 84.3 M43.19 138.24 C51.32 126.03, 64.01 118.23, 85.17 89.94 M43.19 138.24 C54 123.39, 67.75 110.88, 85.17 89.94 M48.17 138.6 C57.68 128.99, 65.02 121.24, 84.91 96.34 M48.17 138.6 C61.01 124.27, 73.8 110.24, 84.91 96.34 M53.82 138.21 C63.58 128.84, 70.7 116.7, 84.65 102.74 M53.82 138.21 C65.6 124.09, 76.55 110.97, 84.65 102.74 M58.8 138.57 C66.99 130.62, 73.18 123.4, 85.04 108.38 M58.8 138.57 C64.95 132.45, 70.14 126.35, 85.04 108.38 M63.79 138.93 C69.42 130.95, 77.07 122.76, 84.78 114.78 M63.79 138.93 C71.14 129.15, 80.97 120.81, 84.78 114.78 M71.4 136.27 C73.7 132.92, 75.08 131.73, 83.21 122.68 M71.4 136.27 C74.37 132.45, 79.74 126.63, 83.21 122.68" stroke="#4c6ef5" stroke-width="0.5" fill="none"></path><path d="M20.66 0 M20.66 0 C37.78 -2.07, 50.21 -1.93, 61.98 0 M20.66 0 C32.98 1, 45.21 -0.11, 61.98 0 M61.98 0 C77.66 1.84, 80.74 5.82, 82.65 20.66 M61.98 0 C77.01 -1.53, 80.97 6.71, 82.65 20.66 M82.65 20.66 C82.43 55.92, 84.25 90.06, 82.65 116.96 M82.65 20.66 C81.36 59.13, 80.93 96.51, 82.65 116.96 M82.65 116.96 C81.74 132.07, 74.86 136, 61.98 137.62 M82.65 116.96 C83.44 131.32, 77.02 139.25, 61.98 137.62 M61.98 137.62 C51.99 138.71, 43.58 136.15, 20.66 137.62 M61.98 137.62 C48.54 137.96, 33.54 136.51, 20.66 137.62 M20.66 137.62 C8.84 138.37, 0.77 129.12, 0 116.96 M20.66 137.62 C9.18 138.05, -0.28 132.89, 0 116.96 M0 116.96 C1.25 89.24, 1.41 63.63, 0 20.66 M0 116.96 C0.17 84.41, -1.4 50.33, 0 20.66 M0 20.66 C-0.52 6.91, 6.86 0.02, 20.66 0 M0 20.66 C-1.37 8.35, 5.11 -1.06, 20.66 0" stroke="#fff" stroke-width="1" fill="none"></path></g><g stroke-linecap="round" transform="translate(341.04363231684613 416.5235992281815) rotate(0 17.389215366205917 19.632985090877668)"><path d="M0.76 4.64 C0.76 4.64, 0.76 4.64, 0.76 4.64 M0.76 4.64 C0.76 4.64, 0.76 4.64, 0.76 4.64 M0.5 11.04 C2.61 8.73, 5.19 3.25, 9.69 0.47 M0.5 11.04 C2.9 7.59, 7 4.76, 9.69 0.47 M0.24 17.43 C7.16 12.15, 11.68 5.7, 14.67 0.83 M0.24 17.43 C4.29 13.09, 7.41 9.82, 14.67 0.83 M0.63 23.08 C5.99 16.91, 9.45 13.07, 19.66 1.19 M0.63 23.08 C5.53 17.61, 9.52 12.52, 19.66 1.19 M0.37 29.47 C8.38 19.64, 19.67 6.79, 25.3 0.8 M0.37 29.47 C4.99 22.86, 10.98 18.44, 25.3 0.8 M0.77 35.12 C12.84 20.59, 23.12 10.63, 30.29 1.16 M0.77 35.12 C12.99 22.54, 23.29 8.1, 30.29 1.16 M3.79 37.74 C16.17 24.67, 25.29 11.56, 33.31 3.78 M3.79 37.74 C11.84 29.03, 18.77 20.56, 33.31 3.78 M6.81 40.37 C14.96 32.16, 21.3 24.33, 36.33 6.4 M6.81 40.37 C18.77 28.4, 28.41 14.32, 36.33 6.4 M11.79 40.73 C21.93 28.47, 31.27 20.6, 36.07 12.8 M11.79 40.73 C19.12 33.54, 24.7 25.66, 36.07 12.8 M17.44 40.33 C26.35 34.27, 30.46 25.22, 36.46 18.45 M17.44 40.33 C24.73 31.14, 33.28 22.63, 36.46 18.45 M22.42 40.69 C26.48 35.69, 32.11 31.52, 36.86 24.09 M22.42 40.69 C28.23 35.35, 32.7 28.74, 36.86 24.09 M28.07 40.3 C31.84 36.04, 34.51 33.9, 35.94 31.24 M28.07 40.3 C30.73 37.96, 32.19 35.09, 35.94 31.24" stroke="#fa5252" stroke-width="0.5" fill="none"></path><path d="M8.69 0 M8.69 0 C13.18 0.71, 18.93 -1.5, 26.08 0 M8.69 0 C13.22 -0.39, 16.89 -0.15, 26.08 0 M26.08 0 C30.94 1.58, 35.09 2.75, 34.78 8.69 M26.08 0 C32.49 -2.25, 36.2 1.93, 34.78 8.69 M34.78 8.69 C33.12 15.52, 35.86 20.37, 34.78 30.57 M34.78 8.69 C35.66 14.7, 34.53 21.12, 34.78 30.57 M34.78 30.57 C33.61 34.86, 31.63 39.36, 26.08 39.27 M34.78 30.57 C33.49 36.71, 32.92 40.84, 26.08 39.27 M26.08 39.27 C18.97 37.8, 15.57 40.98, 8.69 39.27 M26.08 39.27 C20.28 39.91, 13.48 39.44, 8.69 39.27 M8.69 39.27 C2.38 38.7, 1.39 36.63, 0 30.57 M8.69 39.27 C3.63 38.45, 0.54 37.15, 0 30.57 M0 30.57 C1.84 22.27, -0.58 15.54, 0 8.69 M0 30.57 C-0.58 25.39, -0.87 20.59, 0 8.69 M0 8.69 C-1.37 1.82, 2.21 1.35, 8.69 0 M0 8.69 C1.71 2.18, 0.99 1.91, 8.69 0" stroke="#fff" stroke-width="1" fill="none"></path></g><g transform="translate(348.2982651635208 431.39150148590306) rotate(0 10.13458251953125 4.765082833156129)"><text x="10.13458251953125" y="0" font-family="Virgil, Segoe UI Emoji" font-size="7.624132533049804px" fill="#fff" text-anchor="middle" style="white-space: pre;" direction="ltr" dominant-baseline="text-before-edge">Chunk</text></g><g transform="translate(171.91332826057354 427.70304148156856) rotate(0 77.15392303466797 7.500666761190047)"><text x="0" y="0" font-family="Virgil, Segoe UI Emoji" font-size="12.001066817904066px" fill="#fff" text-anchor="start" style="white-space: pre;" direction="ltr" dominant-baseline="text-before-edge">Split the text into chunks</text></g><g stroke-linecap="round" transform="translate(383.67522284840015 462.13175685033497) rotate(0 18.51110022854178 19.632985090877668)"><path d="M2.46 2.14 C2.46 2.14, 2.46 2.14, 2.46 2.14 M2.46 2.14 C2.46 2.14, 2.46 2.14, 2.46 2.14 M2.86 7.78 C4.66 5.81, 6.28 4.17, 9.42 0.24 M2.86 7.78 C3.73 5.81, 5.89 4.84, 9.42 0.24 M3.25 13.43 C5.61 10.69, 10.77 6.83, 15.06 -0.16 M3.25 13.43 C7.64 7.98, 12.82 2.69, 15.06 -0.16 M2.99 19.83 C10.01 14.41, 16.67 7.4, 20.05 0.2 M2.99 19.83 C6.45 14.45, 10.17 11, 20.05 0.2 M2.73 26.22 C12.65 15.42, 20.55 9.34, 25.69 -0.19 M2.73 26.22 C6.46 21.55, 10.94 15.94, 25.69 -0.19 M2.47 32.62 C7.75 24.5, 14.41 19.19, 29.37 1.68 M2.47 32.62 C9.67 25.12, 14.83 18.86, 29.37 1.68 M3.52 37.51 C12.87 26.08, 21.77 16.71, 33.7 2.79 M3.52 37.51 C14.94 24.58, 26.9 10.62, 33.7 2.79 M7.19 39.38 C12.76 33.9, 18.12 23.73, 37.37 4.66 M7.19 39.38 C16.32 28.36, 26.82 16.75, 37.37 4.66 M10.87 41.25 C18.91 32.36, 26.21 26.4, 37.77 10.31 M10.87 41.25 C16.26 34.4, 20.85 28.83, 37.77 10.31 M16.51 40.85 C22.63 33.44, 31.99 23.58, 38.16 15.95 M16.51 40.85 C22.23 32.68, 29.06 26.16, 38.16 15.95 M21.5 41.21 C27.56 35.98, 29.87 30.75, 37.9 22.35 M21.5 41.21 C26.72 35.98, 30.07 30.67, 37.9 22.35 M28.45 39.31 C31.82 37.04, 34.25 33.11, 37.64 28.74 M28.45 39.31 C31.05 36.25, 33.39 32.98, 37.64 28.74" stroke="#fa5252" stroke-width="0.5" fill="none"></path><path d="M9.26 0 M9.26 0 C13.44 -0.74, 18.99 -0.97, 27.77 0 M9.26 0 C13.38 -0.64, 18.81 -0.17, 27.77 0 M27.77 0 C32.39 -1.46, 37.16 4.57, 37.02 9.26 M27.77 0 C34 1.9, 36.54 3.29, 37.02 9.26 M37.02 9.26 C38 16.25, 37.2 23.02, 37.02 30.01 M37.02 9.26 C36.78 14.74, 36.26 18.8, 37.02 30.01 M37.02 30.01 C38.4 37.6, 33.59 38.23, 27.77 39.27 M37.02 30.01 C34.74 35.93, 35.12 39.59, 27.77 39.27 M27.77 39.27 C23.86 37.94, 18.28 40.17, 9.26 39.27 M27.77 39.27 C22.25 38.47, 14.68 39.18, 9.26 39.27 M9.26 39.27 C2.74 41.18, 0.71 35.26, 0 30.01 M9.26 39.27 C2.63 37.54, -0.61 34.41, 0 30.01 M0 30.01 C-0.25 22.93, -0.79 17.6, 0 9.26 M0 30.01 C-0.56 25.67, 0.75 19.35, 0 9.26 M0 9.26 C0.52 2.01, 2.11 -0.79, 9.26 0 M0 9.26 C-2.13 1.39, 1.87 -0.4, 9.26 0" stroke="#fff" stroke-width="1" fill="none"></path></g><g transform="translate(391.9187373225475 476.9393490024477) rotate(0 10.267585754394531 4.825392938764935)"><text x="10.267585754394531" y="0" font-family="Virgil, Segoe UI Emoji" font-size="7.720628702023885px" fill="#fff" text-anchor="middle" style="white-space: pre;" direction="ltr" dominant-baseline="text-before-edge">Chunk</text></g><g stroke-linecap="round" transform="translate(343.65412420906137 461.0098377507902) rotate(0 17.10874415062196 19.63298509087764)"><path d="M2.28 1.98 C2.28 1.98, 2.28 1.98, 2.28 1.98 M2.28 1.98 C2.28 1.98, 2.28 1.98, 2.28 1.98 M3.33 6.87 C5.66 3.44, 7.19 2.29, 9.23 0.08 M3.33 6.87 C4.9 4.44, 7.39 2.71, 9.23 0.08 M3.07 13.27 C8.25 8.34, 10.79 4.83, 14.22 0.44 M3.07 13.27 C6.41 9.73, 10.5 6.04, 14.22 0.44 M3.46 18.91 C8.75 11.04, 13.99 3.53, 19.21 0.8 M3.46 18.91 C8.08 13.8, 13.06 7.66, 19.21 0.8 M3.2 25.31 C13.36 14.29, 21.5 4.6, 24.85 0.4 M3.2 25.31 C11.68 16.1, 18.17 7.62, 24.85 0.4 M0.31 34.72 C9.97 25.28, 19.31 11.99, 29.84 0.76 M0.31 34.72 C9.17 23.97, 18.54 12.91, 29.84 0.76 M3.33 37.35 C15.33 24.4, 26.75 12.25, 32.86 3.39 M3.33 37.35 C10.77 28.81, 18.59 20.26, 32.86 3.39 M6.35 39.97 C14.65 30.66, 20.95 24.2, 35.22 6.76 M6.35 39.97 C15.86 30.5, 23.7 20.55, 35.22 6.76 M11.34 40.33 C19.45 29.91, 28.17 17.81, 35.61 12.41 M11.34 40.33 C18.47 31.37, 26.07 24.09, 35.61 12.41 M16.98 39.94 C23.04 31.84, 26.96 26.15, 36.01 18.05 M16.98 39.94 C22.1 35.12, 27.05 28.36, 36.01 18.05 M21.97 40.3 C25.83 38.35, 28.28 32.53, 35.75 24.45 M21.97 40.3 C24.8 37.12, 29.19 33.24, 35.75 24.45 M27.61 39.9 C29.43 38, 30.89 35.63, 34.83 31.6 M27.61 39.9 C30.12 37.71, 31.49 35.86, 34.83 31.6" stroke="#fa5252" stroke-width="0.5" fill="none"></path><path d="M8.55 0 M8.55 0 C11.59 -1.5, 15.86 -0.6, 25.66 0 M8.55 0 C13.16 0.76, 17.67 0.83, 25.66 0 M25.66 0 C30.95 0.18, 34.36 4.32, 34.22 8.55 M25.66 0 C33.21 0.94, 34.93 2.88, 34.22 8.55 M34.22 8.55 C33.6 15.8, 34.66 22.54, 34.22 30.71 M34.22 8.55 C34.2 12.78, 33.38 17.94, 34.22 30.71 M34.22 30.71 C35.24 36.7, 30.8 39.26, 25.66 39.27 M34.22 30.71 C34.82 37.81, 29.66 39.97, 25.66 39.27 M25.66 39.27 C18.33 40.74, 12.63 38.53, 8.55 39.27 M25.66 39.27 C20.72 39.04, 14.99 38.79, 8.55 39.27 M8.55 39.27 C2.32 37.73, -0.27 36.66, 0 30.71 M8.55 39.27 C1.1 39.01, -1.31 35.54, 0 30.71 M0 30.71 C-0.13 23.68, 1.21 20.22, 0 8.55 M0 30.71 C-0.55 25.69, -0.99 20.73, 0 8.55 M0 8.55 C-1.06 2.51, 3.75 0.27, 8.55 0 M0 8.55 C0.34 3.47, 3.53 -1.42, 8.55 0" stroke="#fff" stroke-width="1" fill="none"></path></g><g transform="translate(350.66818757355054 475.8942957237769) rotate(0 10.094680786132812 4.748527117890973)"><text x="10.094680786132812" y="0" font-family="Virgil, Segoe UI Emoji" font-size="7.597643388625546px" fill="#fff" text-anchor="middle" style="white-space: pre;" direction="ltr" dominant-baseline="text-before-edge">Chunk</text></g><g stroke-linecap="round" transform="translate(382.9273452564548 416.8823550865098) rotate(0 19.072042659709723 19.632985090877668)"><path d="M2.54 2.21 C2.54 2.21, 2.54 2.21, 2.54 2.21 M2.54 2.21 C2.54 2.21, 2.54 2.21, 2.54 2.21 M2.93 7.85 C5.37 4.2, 7.43 2.6, 9.49 0.3 M2.93 7.85 C5.46 5.56, 7.37 2.52, 9.49 0.3 M3.33 13.49 C7.46 8.86, 12.14 5.7, 15.14 -0.09 M3.33 13.49 C8.34 8.12, 11.65 2.7, 15.14 -0.09 M3.07 19.89 C5.81 14.17, 12.57 9.1, 20.12 0.27 M3.07 19.89 C9.91 13.53, 15.02 6.12, 20.12 0.27 M2.8 26.29 C8.4 22.13, 11.82 14.2, 25.77 -0.13 M2.8 26.29 C8.71 18.4, 17.12 10.31, 25.77 -0.13 M3.2 31.93 C9.74 22.1, 18.49 13.18, 30.1 0.99 M3.2 31.93 C9.33 25.5, 14.62 18.86, 30.1 0.99 M3.59 37.57 C17.18 24.56, 26.81 12.68, 33.77 2.86 M3.59 37.57 C10.59 30.1, 17.22 21.66, 33.77 2.86 M7.27 39.44 C15 30.08, 26.64 17.51, 38.1 3.97 M7.27 39.44 C18.08 26.6, 28.84 13.89, 38.1 3.97 M11.6 40.56 C18.36 34.1, 21.87 28.43, 38.5 9.62 M11.6 40.56 C19.55 30.74, 28.08 19.82, 38.5 9.62 M16.59 40.92 C21.38 33.57, 31.06 26.01, 38.24 16.01 M16.59 40.92 C23.95 33.58, 31.03 25.48, 38.24 16.01 M22.23 40.52 C26.18 33.57, 33.52 29.84, 38.63 21.66 M22.23 40.52 C29.57 33.41, 35.1 25.96, 38.63 21.66 M28.53 39.37 C30 37.79, 33.69 33.21, 38.37 28.05 M28.53 39.37 C32.36 34.4, 35.61 29.93, 38.37 28.05" stroke="#fa5252" stroke-width="0.5" fill="none"></path><path d="M9.54 0 M9.54 0 C13.18 0.28, 21.03 0.2, 28.61 0 M9.54 0 C16.9 0.69, 24.89 0.37, 28.61 0 M28.61 0 C35.58 0.02, 39.17 2.19, 38.14 9.54 M28.61 0 C35.2 -0.58, 37.53 3.82, 38.14 9.54 M38.14 9.54 C39.39 13.66, 36.93 16.5, 38.14 29.73 M38.14 9.54 C37.96 15.37, 38.51 21.82, 38.14 29.73 M38.14 29.73 C36.66 36.7, 35.89 40.15, 28.61 39.27 M38.14 29.73 C36.94 34.19, 37.07 37.67, 28.61 39.27 M28.61 39.27 C25.44 39.91, 17.73 38.86, 9.54 39.27 M28.61 39.27 C24.19 39.24, 19.3 39.01, 9.54 39.27 M9.54 39.27 C2.04 38.5, -0.53 34.78, 0 29.73 M9.54 39.27 C3.96 38.95, -1.12 37.31, 0 29.73 M0 29.73 C-0.89 21.04, -0.61 12.46, 0 9.54 M0 29.73 C0.55 25.3, 0.25 20.86, 0 9.54 M0 9.54 C0.59 1.95, 1.98 -0.96, 9.54 0 M0 9.54 C-0.16 1.82, 2.03 0.65, 9.54 0" stroke="#fff" stroke-width="1" fill="none"></path></g><g transform="translate(391.6786023937036 431.66291167403926) rotate(0 10.320785522460938 4.852428503348193)"><text x="10.320785522460938" y="0" font-family="Virgil, Segoe UI Emoji" font-size="7.763885605357088px" fill="#fff" text-anchor="middle" style="white-space: pre;" direction="ltr" dominant-baseline="text-before-edge">Chunk</text></g><g stroke-linecap="round"><g transform="translate(422.8123288884924 470.5748489477586) rotate(0 44.613487544226814 0.43184134987984635)"><path d="M0.11 -0.69 C15.09 -0.37, 75.18 1.11, 90.52 1.29 M-1.29 1.56 C13.44 1.57, 73.79 -0.6, 89.34 -0.61" stroke="#fff" stroke-width="1" fill="none"></path></g><g transform="translate(422.8123288884924 470.5748489477586) rotate(0 44.613487544226814 0.43184134987984635)"><path d="M-0.41 -16.24 C0.78 -8.92, -0.46 -3.97, 1.09 -0.47 M0.51 -16.14 C0.54 -11.19, 0.63 -6.26, 0.16 -0.13" stroke="#fff" stroke-width="1" fill="none"></path></g><g transform="translate(422.8123288884924 470.5748489477586) rotate(0 44.613487544226814 0.43184134987984635)"><path d="M-1.1 13.75 C0.5 10.52, -0.49 4.92, 1.09 -0.47 M-0.18 13.85 C-0.13 9.14, 0.18 4.41, 0.16 -0.13" stroke="#fff" stroke-width="1" fill="none"></path></g><g transform="translate(422.8123288884924 470.5748489477586) rotate(0 44.613487544226814 0.43184134987984635)"><path d="M87.78 0.08 L76.8 6.37 L77.13 -6.84 L89 -0.29" stroke="none" stroke-width="0" fill="#fff" fill-rule="evenodd"></path><path d="M88.47 -1.16 C85.1 3.22, 79.25 5.22, 76.86 6.22 M89.4 -1.06 C85.14 1.12, 81 3.36, 75.93 6.57 M76.55 6.15 C75.61 1.83, 75.33 -0.82, 76.69 -7.55 M75.99 6.3 C76.34 1.31, 75.36 -2.31, 76.08 -6.19 M76.15 -7.46 C79.62 -4.96, 85.95 -3.2, 90.23 0.43 M75.91 -7.37 C79.69 -4.32, 84.43 -2.97, 89.36 -1.34 M89.34 -0.61 C89.34 -0.61, 89.34 -0.61, 89.34 -0.61 M89.34 -0.61 C89.34 -0.61, 89.34 -0.61, 89.34 -0.61" stroke="#fff" stroke-width="1" fill="none"></path></g></g><mask></mask><g stroke-linecap="round" transform="translate(519.4601673043092 416.4059922868861) rotate(0 50.03703591000141 43.201391955183226)"><path d="M3.28 8.15 C3.28 8.15, 3.28 8.15, 3.28 8.15 M3.28 8.15 C3.28 8.15, 3.28 8.15, 3.28 8.15 M1.05 16.82 C3.74 12.36, 9.19 9.44, 10.9 5.5 M1.05 16.82 C4.35 13.32, 7.7 9.31, 10.9 5.5 M0.79 23.21 C7.92 16.46, 11.77 10.38, 17.85 3.59 M0.79 23.21 C5.33 17.06, 11.12 12.14, 17.85 3.59 M1.19 28.86 C5.95 20.75, 11.14 16.74, 24.15 2.44 M1.19 28.86 C8.16 20.18, 17.72 9.41, 24.15 2.44 M0.93 35.26 C6.22 27.02, 11.54 21.86, 29.79 2.05 M0.93 35.26 C8.97 26.36, 16.69 16.41, 29.79 2.05 M0.66 41.65 C9.78 33.34, 16.07 22.29, 34.78 2.41 M0.66 41.65 C12.94 27.12, 24.85 13, 34.78 2.41 M1.06 47.3 C15.6 28.36, 32.05 13.05, 39.77 2.77 M1.06 47.3 C9.61 37.08, 19.68 25.68, 39.77 2.77 M0.8 53.69 C17.14 34.67, 31.71 20.07, 45.41 2.37 M0.8 53.69 C17.37 33.21, 34.42 14.94, 45.41 2.37 M1.19 59.34 C18.44 42.59, 31.56 23.21, 50.4 2.73 M1.19 59.34 C19.09 37.4, 37.51 17.93, 50.4 2.73 M0.93 65.73 C18.93 44.14, 36.23 21.68, 56.04 2.34 M0.93 65.73 C18.31 45.65, 34.65 26.81, 56.04 2.34 M1.33 71.38 C18.46 48.74, 37.88 28.34, 61.03 2.7 M1.33 71.38 C22.8 47.69, 43.76 24.07, 61.03 2.7 M3.69 74.76 C18.04 59.17, 31.6 40.64, 66.67 2.3 M3.69 74.76 C26.18 47.05, 50.34 21.57, 66.67 2.3 M5.39 78.89 C20.65 57.97, 40.05 38.76, 71.66 2.66 M5.39 78.89 C30.97 48.36, 57.49 19.16, 71.66 2.66 M7.1 83.02 C31.47 54.67, 53.57 28.44, 77.3 2.27 M7.1 83.02 C25.65 61.87, 46.35 38.9, 77.3 2.27 M11.43 84.14 C35.96 55.78, 64.74 24.78, 84.25 0.37 M11.43 84.14 C26.54 65.38, 42.96 47.34, 84.25 0.37 M15.11 86.01 C40.42 59.27, 60.44 30.52, 87.93 2.24 M15.11 86.01 C39.08 57.6, 64.04 31.32, 87.93 2.24 M18.78 87.88 C35.08 67.1, 53.66 51.27, 91.6 4.11 M18.78 87.88 C36.23 69.02, 55.02 47.33, 91.6 4.11 M23.77 88.24 C51.96 53.99, 78.95 24.58, 95.28 5.97 M23.77 88.24 C41.31 69.25, 57.68 50.26, 95.28 5.97 M29.41 87.84 C48.77 67.02, 69.44 42.94, 97.64 9.35 M29.41 87.84 C41.77 71.7, 57.04 55.32, 97.64 9.35 M34.4 88.2 C55.65 66.49, 76.08 42.15, 100.01 12.73 M34.4 88.2 C53.22 67.87, 71.46 44.81, 100.01 12.73 M40.04 87.81 C56.26 70.07, 70.42 52.98, 100.4 18.38 M40.04 87.81 C59.22 64.07, 79.72 41.63, 100.4 18.38 M45.03 88.17 C61.76 67.67, 80.23 47.39, 101.45 23.26 M45.03 88.17 C56.81 74.81, 68.84 60.44, 101.45 23.26 M50.67 87.77 C62.09 73.22, 73.62 62.88, 101.85 28.91 M50.67 87.77 C60.59 76.49, 71.27 63.27, 101.85 28.91 M55.66 88.13 C69.69 72.68, 83.98 58.35, 101.58 35.3 M55.66 88.13 C72.59 69.53, 88.54 50.19, 101.58 35.3 M60.65 88.49 C75.89 68.07, 91.71 50.76, 101.32 41.7 M60.65 88.49 C72.02 76.16, 82.99 63.03, 101.32 41.7 M66.29 88.1 C79.34 71.68, 92.96 56.76, 101.72 47.35 M66.29 88.1 C74.85 78.5, 84.31 67.22, 101.72 47.35 M71.28 88.46 C83.36 75.86, 95.43 61.95, 101.46 53.74 M71.28 88.46 C80.6 79.46, 88.87 68.99, 101.46 53.74 M76.92 88.07 C84.44 80.74, 89.58 74.16, 101.19 60.14 M76.92 88.07 C83.45 82.41, 89.37 75.16, 101.19 60.14 M81.25 89.18 C87.79 83.26, 91.88 76.72, 101.59 65.78 M81.25 89.18 C88.1 81.78, 96.12 71.43, 101.59 65.78 M88.86 86.52 C92.8 84.27, 96.78 80.87, 101.98 71.43 M88.86 86.52 C93.16 83.11, 96.7 76.93, 101.98 71.43" stroke="#fa5252" stroke-width="0.5" fill="none"></path><path d="M21.6 0 M21.6 0 C34.19 1.44, 51.24 1.25, 78.47 0 M21.6 0 C35.88 0.76, 51.86 0.64, 78.47 0 M78.47 0 C91.96 -0.61, 98.33 7.38, 100.07 21.6 M78.47 0 C92.51 -0.94, 100.55 8.92, 100.07 21.6 M100.07 21.6 C98.86 36.26, 100.95 49.84, 100.07 64.8 M100.07 21.6 C100.24 34.19, 100.04 46.93, 100.07 64.8 M100.07 64.8 C99.95 78.07, 92.07 87.6, 78.47 86.4 M100.07 64.8 C97.98 79.34, 92.09 88.4, 78.47 86.4 M78.47 86.4 C66.12 87.21, 55.05 87.86, 21.6 86.4 M78.47 86.4 C65.43 85.55, 50.71 85.88, 21.6 86.4 M21.6 86.4 C9.13 85.11, -1.55 78.58, 0 64.8 M21.6 86.4 C8 85.46, -0.05 79.05, 0 64.8 M0 64.8 C-0.14 55.65, -1.69 46.63, 0 21.6 M0 64.8 C0.06 53.9, -0.97 41.45, 0 21.6 M0 21.6 C1.14 5.25, 7.81 0.08, 21.6 0 M0 21.6 C1.9 8.17, 6.87 0.38, 21.6 0" stroke="#fff" stroke-width="1" fill="none"></path></g><g transform="translate(537.5546983314981 440.64442175364763) rotate(0 31.9425048828125 18.962962488421653)"><text x="31.9425048828125" y="0" font-family="Virgil, Segoe UI Emoji" font-size="10.113579993824887px" fill="#fff" text-anchor="middle" style="white-space: pre;" direction="ltr" dominant-baseline="text-before-edge">Vector Store</text><text x="31.9425048828125" y="12.641974992281108" font-family="Virgil, Segoe UI Emoji" font-size="10.113579993824887px" fill="#fff" text-anchor="middle" style="white-space: pre;" direction="ltr" dominant-baseline="text-before-edge"></text><text x="31.9425048828125" y="25.283949984562216" font-family="Virgil, Segoe UI Emoji" font-size="10.113579993824887px" fill="#fff" text-anchor="middle" style="white-space: pre;" direction="ltr" dominant-baseline="text-before-edge">(FAISS)</text></g><g stroke-linecap="round" transform="translate(514.5439332756745 408.4775356137897) rotate(0 51.130724924327694 9.569929072976095)"><path d="M-0.59 10.09 C-0.59 10.09, -0.59 10.09, -0.59 10.09 M-0.59 10.09 C-0.59 10.09, -0.59 10.09, -0.59 10.09 M3.4 11.02 C5.4 9.55, 6.37 7.79, 7.08 6.79 M3.81 10.91 C4.91 9.74, 6.29 8.63, 7.49 6.95 M7.83 13.44 C8.87 11.39, 10.71 9.13, 13.57 5.41 M6.98 13.54 C9.25 11.37, 11.42 9.35, 13.52 5.13 M9.89 14.48 C14.77 9.62, 17.22 6.61, 19.05 4.7 M11.4 14.39 C13.76 11.64, 17.6 7.26, 20.41 3.7 M14.6 16.62 C18.85 10.09, 25.17 7.8, 25.49 1.62 M15.27 16.04 C18.49 13.03, 20.22 10.09, 25.77 2.34 M18.24 18.08 C23.35 12.68, 27.93 6.89, 33.02 3.77 M19.74 16.28 C24.28 13.01, 26.75 8.13, 32.37 2.94 M25.5 17.91 C29.82 12.43, 31.68 10.55, 35.28 5.07 M24.2 16.7 C29.5 13.17, 32.99 8.07, 36 4.31 M27.64 16.71 C34.84 13.8, 38.62 6.11, 40.74 3.45 M28.8 19.17 C31.73 15.95, 34.84 11.83, 41.39 3.79 M34.64 19.7 C35.57 15.73, 38.84 10.09, 48.95 1.73 M34.28 19.4 C37.7 15.69, 41.84 11.07, 47.66 4.14 M38.86 21.33 C43.76 14.51, 47.84 6.36, 51.47 3.2 M39.51 19.86 C43.17 15.04, 47.13 10.71, 52.51 3.55 M42.92 18.2 C46.97 15.36, 50.98 13.3, 56.53 4.86 M44.54 20.1 C48.38 14.84, 51.62 9.25, 58.68 4.08 M49.69 21.31 C54.44 15.33, 56.95 11.77, 62.85 2.22 M50.55 19.58 C52.79 14.71, 57.58 11.2, 63.99 3.15 M54.15 18.38 C60.4 15.78, 59.9 9.74, 67.45 3.15 M55.97 18.84 C60.42 13.06, 65.15 8.97, 69.38 2.22 M58.61 20.5 C64.85 16.39, 66.42 12.14, 72.88 2.51 M59.84 18.99 C64.02 13.93, 69.44 8.02, 74.29 4.19 M64.65 19.94 C70.49 15.42, 73.62 9.06, 78.46 5.23 M65.89 18.36 C69.12 15.37, 72.22 10.74, 78.09 5.39 M70.73 18.99 C73.35 16.8, 75.32 14.6, 81.61 6.67 M72.46 17.92 C74.05 14.54, 78.26 10.77, 83.38 4.86 M75.65 20.34 C77.3 17.54, 81.59 13.48, 88.13 4.38 M76.49 18.65 C81.29 14.02, 86.76 8.7, 89.55 3.94 M81.32 18.04 C83.79 14.31, 86.44 10.21, 92.24 5.21 M81.16 19.52 C85.12 14.96, 89.2 12.2, 92.86 6.1 M86.98 17.7 C92.13 15.18, 95.06 9.56, 98.42 6.51 M87.62 18.31 C90.57 14.35, 94.58 10.51, 97.27 7.22 M93 17.78 C96.56 14.66, 98.78 11.36, 99.92 8.8 M93.29 17.85 C95.25 15.22, 97.98 12.74, 100.56 9.71" stroke="#fa5252" stroke-width="0.5" fill="none"></path><path d="M61.09 0.39 C70.45 0.48, 81.19 1.4, 87.94 2.85 C94.7 4.31, 100.14 7.18, 101.62 9.12 C103.1 11.06, 101.54 13.13, 96.82 14.5 C92.1 15.87, 82.31 16.58, 73.3 17.33 C64.3 18.08, 52.76 19.26, 42.8 19 C32.84 18.73, 20.76 17.25, 13.55 15.74 C6.33 14.23, 0.75 11.75, -0.48 9.95 C-1.71 8.16, 1.39 6.38, 6.18 4.95 C10.97 3.53, 18.88 2.27, 28.28 1.39 C37.67 0.51, 56.5 -0.05, 62.56 -0.33 C68.62 -0.61, 64.86 -0.66, 64.66 -0.29 M72.17 0.01 C80.8 0.81, 90.19 4.38, 95.21 6.29 C100.22 8.2, 103.37 9.61, 102.25 11.45 C101.13 13.29, 95.15 16.21, 88.49 17.33 C81.83 18.46, 72.02 17.89, 62.28 18.21 C52.53 18.52, 39.41 19.66, 30 19.22 C20.59 18.77, 10.84 17.57, 5.84 15.53 C0.83 13.5, -1.38 9.05, -0.03 7 C1.32 4.94, 7.02 4.14, 13.96 3.22 C20.9 2.3, 31.83 1.92, 41.62 1.49 C51.42 1.07, 67.64 0.98, 72.72 0.69 C77.8 0.39, 72.57 -0.43, 72.08 -0.26" stroke="#fff" stroke-width="1" fill="none"></path></g><g transform="translate(424.80894674191836 440.5273192423573) rotate(0 40.91858673095703 5.687471153018066)"><text x="0" y="0" font-family="Virgil, Segoe UI Emoji" font-size="9.099953844828885px" fill="#fff" text-anchor="start" style="white-space: pre;" direction="ltr" dominant-baseline="text-before-edge">Create embeddings</text></g><g transform="translate(521.9618360759679 383.6781426292512) rotate(0 68.32461547851562 7.891396021060416)"><text x="0" y="0" font-family="Virgil, Segoe UI Emoji" font-size="12.626233633696646px" fill="#fff" text-anchor="start" style="white-space: pre;" direction="ltr" dominant-baseline="text-before-edge">Store your embeddings</text></g><g stroke-linecap="round" transform="translate(199.18652751140198 203.95456081766827) rotate(0 54.509969705817014 29.71408833667755)"><path d="M3.95 3.44 C3.95 3.44, 3.95 3.44, 3.95 3.44 M3.95 3.44 C3.95 3.44, 3.95 3.44, 3.95 3.44 M1.73 12.1 C3.36 11.09, 4.47 7.41, 10.25 2.29 M1.73 12.1 C4.2 10.26, 5.65 6.89, 10.25 2.29 M1.46 18.5 C9.11 12.65, 11.68 5.46, 16.55 1.14 M1.46 18.5 C7.09 12.74, 11.3 7.68, 16.55 1.14 M1.2 24.9 C8.56 14.56, 14.44 7.89, 21.54 1.5 M1.2 24.9 C4.85 19.62, 10.04 14.17, 21.54 1.5 M1.6 30.54 C10.18 18.53, 20.77 7.31, 27.18 1.1 M1.6 30.54 C10.97 18.81, 22.3 7.59, 27.18 1.1 M1.34 36.94 C9.25 28.59, 17.22 19.26, 32.17 1.46 M1.34 36.94 C10.05 27.87, 16.19 19.36, 32.17 1.46 M1.73 42.58 C10.1 31.94, 16.94 25.77, 37.81 1.07 M1.73 42.58 C14.52 29.74, 24.07 16.9, 37.81 1.07 M1.47 48.98 C14.87 35.26, 26.19 22.93, 42.8 1.43 M1.47 48.98 C17.89 31.48, 34.41 12.46, 42.8 1.43 M2.52 53.87 C20.71 35.15, 37.9 16.13, 48.44 1.04 M2.52 53.87 C20.11 34.76, 35.08 16.86, 48.44 1.04 M5.54 56.49 C21.65 38.3, 36.31 21.59, 53.43 1.4 M5.54 56.49 C21.57 39.16, 36.01 21.31, 53.43 1.4 M8.56 59.11 C21.79 47.11, 32.12 30.13, 59.07 1 M8.56 59.11 C25.51 40.25, 39.85 21.79, 59.07 1 M12.89 60.23 C29.04 39.96, 47.19 19.07, 64.06 1.36 M12.89 60.23 C23.79 47.64, 36.55 34.34, 64.06 1.36 M17.22 61.34 C35.01 43.03, 49.16 25.12, 69.7 0.97 M17.22 61.34 C34.64 40.96, 52.58 20.23, 69.7 0.97 M22.21 61.7 C39.44 42.47, 59.43 21.16, 74.69 1.33 M22.21 61.7 C35.37 46.16, 48.72 30.6, 74.69 1.33 M27.85 61.31 C47.26 39.16, 64.83 19.39, 79.68 1.69 M27.85 61.31 C43.46 44, 59.22 25.46, 79.68 1.69 M32.84 61.67 C48.82 46.58, 61.63 29.65, 85.32 1.29 M32.84 61.67 C48.49 45.57, 62.64 27.51, 85.32 1.29 M38.48 61.27 C54.97 45.64, 68.41 28.36, 90.31 1.65 M38.48 61.27 C49.38 48.66, 62.32 34.51, 90.31 1.65 M43.47 61.63 C62.15 42.18, 76.76 24.4, 95.95 1.26 M43.47 61.63 C61.24 40.13, 77.63 20.73, 95.95 1.26 M49.11 61.24 C64.64 41.46, 79.96 25.31, 100.28 2.37 M49.11 61.24 C63.84 46.62, 77.26 29.18, 100.28 2.37 M54.1 61.6 C67.77 45.19, 83.65 26.07, 104.61 3.49 M54.1 61.6 C71.53 41.07, 88.52 20.68, 104.61 3.49 M59.74 61.21 C76.21 40.67, 95.47 18.5, 107.63 6.11 M59.74 61.21 C77.36 40.67, 93.58 21.33, 107.63 6.11 M64.73 61.57 C79.04 43.57, 96.68 21.68, 108.68 11 M64.73 61.57 C75.36 49.14, 87.88 35.18, 108.68 11 M70.37 61.17 C83.76 47.2, 95.9 31.68, 111.7 13.62 M70.37 61.17 C84.77 45.13, 98.22 29.6, 111.7 13.62 M75.36 61.53 C88.35 46.74, 101.73 29.94, 111.44 20.02 M75.36 61.53 C84.22 51.8, 93.79 40.81, 111.44 20.02 M81 61.14 C87.69 53.54, 94.25 45.04, 111.83 25.67 M81 61.14 C92.72 47.76, 102.98 36.59, 111.83 25.67 M85.99 61.5 C96.84 49.22, 105.44 41.13, 111.57 32.06 M85.99 61.5 C96.05 50.23, 105.65 38.81, 111.57 32.06 M91.63 61.1 C97.94 56.49, 101.71 51.3, 111.97 37.71 M91.63 61.1 C99.5 52.42, 107.82 42.07, 111.97 37.71 M96.62 61.46 C99.53 56.9, 107.14 49.94, 110.39 45.61 M96.62 61.46 C100.06 57.25, 104.41 50.84, 110.39 45.61" stroke="#4c6ef5" stroke-width="0.5" fill="none"></path><path d="M14.86 0 M14.86 0 C31.6 0.13, 49.57 0.22, 94.16 0 M14.86 0 C35.83 -0.83, 58 -1.19, 94.16 0 M94.16 0 C104.29 1.97, 108.26 3.87, 109.02 14.86 M94.16 0 C102.24 1.9, 106.87 5.98, 109.02 14.86 M109.02 14.86 C110.04 28.04, 108.67 38.83, 109.02 44.57 M109.02 14.86 C108.32 23, 109.76 29.02, 109.02 44.57 M109.02 44.57 C110.07 55.86, 105.37 58.68, 94.16 59.43 M109.02 44.57 C109.83 53.56, 105.81 60.21, 94.16 59.43 M94.16 59.43 C67.95 57.17, 37.31 60.97, 14.86 59.43 M94.16 59.43 C63.27 59.75, 32.64 59.74, 14.86 59.43 M14.86 59.43 C5.21 57.62, 1.26 55.13, 0 44.57 M14.86 59.43 C2.85 61.63, 2.04 56.15, 0 44.57 M0 44.57 C-0.23 34.63, -1.05 21.38, 0 14.86 M0 44.57 C0.18 39.51, -0.1 33.31, 0 14.86 M0 14.86 C0.08 4.43, 6.37 0.18, 14.86 0 M0 14.86 C-2.16 7.15, 5.04 -0.47, 14.86 0" stroke="#fff" stroke-width="1" fill="none"></path></g><g transform="translate(212.67278505901587 226.49180529839725) rotate(0 41.023712158203125 7.176843855948562)"><text x="41.023712158203125" y="0" font-family="Virgil, Segoe UI Emoji" font-size="11.482950169517702px" fill="#fff" text-anchor="middle" style="white-space: pre;" direction="ltr" dominant-baseline="text-before-edge">Input question</text></g><g stroke-linecap="round" transform="translate(164.34932470113208 265.53478006155393) rotate(0 100.5 12.5)"><path d="M1.66 1.45 C1.66 1.45, 1.66 1.45, 1.66 1.45 M1.66 1.45 C1.66 1.45, 1.66 1.45, 1.66 1.45 M3.37 5.58 C5.16 3.54, 6.79 1.63, 7.31 1.05 M3.37 5.58 C4.63 4.01, 6.3 2.11, 7.31 1.05 M3.11 11.98 C6.49 8.3, 12.33 3.86, 12.95 0.66 M3.11 11.98 C5.52 8.7, 7.52 7.2, 12.95 0.66 M1.54 19.88 C6.34 15.32, 8.24 9.67, 17.94 1.02 M1.54 19.88 C7.83 13, 14.76 5.63, 17.94 1.02 M2.59 24.77 C8.53 18.25, 14.44 11.89, 23.58 0.62 M2.59 24.77 C8.25 18.26, 13.42 11.75, 23.58 0.62 M6.92 25.89 C13.21 20.13, 17.42 12.87, 28.57 0.98 M6.92 25.89 C14.51 16.67, 23.38 7.01, 28.57 0.98 M12.56 25.49 C18.29 16.15, 25.65 6.7, 33.55 1.34 M12.56 25.49 C20.18 16.71, 26.86 7.64, 33.55 1.34 M17.55 25.85 C23.66 15.91, 31.96 6.69, 39.2 0.95 M17.55 25.85 C25.71 15.22, 33.92 6.61, 39.2 0.95 M23.19 25.46 C26.92 20.32, 33.11 13.22, 44.18 1.31 M23.19 25.46 C32.26 16.35, 40.21 7.36, 44.18 1.31 M28.18 25.82 C35.92 17.54, 43.83 10.23, 49.83 0.91 M28.18 25.82 C35.08 18.32, 41.19 10.42, 49.83 0.91 M33.82 25.42 C40.88 15.73, 49.16 6.48, 54.81 1.27 M33.82 25.42 C37.88 20.1, 43.57 14.8, 54.81 1.27 M38.81 25.78 C44.22 20.07, 52.44 10.5, 60.46 0.88 M38.81 25.78 C43.2 20.3, 49.3 13.96, 60.46 0.88 M44.45 25.39 C51.43 18.88, 60.16 11.02, 65.44 1.24 M44.45 25.39 C47.89 20.03, 52.74 15.31, 65.44 1.24 M49.44 25.75 C52.99 19.82, 59.47 16.04, 71.09 0.84 M49.44 25.75 C56.66 17.16, 64.07 8.88, 71.09 0.84 M55.08 25.36 C62.35 18.24, 71.97 5.79, 76.07 1.2 M55.08 25.36 C60.66 19, 66.52 12.73, 76.07 1.2 M60.07 25.72 C67.3 17.01, 71.56 10.55, 81.72 0.81 M60.07 25.72 C65.95 19.67, 72.26 12.04, 81.72 0.81 M65.05 26.08 C75.2 17.86, 82.3 8.44, 86.7 1.17 M65.05 26.08 C74.08 17.46, 81.3 6.2, 86.7 1.17 M70.7 25.68 C77.08 16.38, 83.95 11.52, 92.35 0.78 M70.7 25.68 C79.39 16.61, 87.55 6.86, 92.35 0.78 M75.68 26.04 C80.4 18.89, 87.09 12.44, 97.33 1.14 M75.68 26.04 C79.71 20.63, 85.77 14.33, 97.33 1.14 M81.33 25.65 C84.37 18.56, 92.37 15.56, 102.98 0.74 M81.33 25.65 C87.03 19.18, 91.69 13.61, 102.98 0.74 M86.31 26.01 C90.13 19.9, 99.33 12.64, 107.96 1.1 M86.31 26.01 C90.91 20.15, 98.14 13.55, 107.96 1.1 M91.96 25.61 C98.12 18.2, 104.13 11.63, 113.61 0.71 M91.96 25.61 C99.6 16.78, 106.49 10.3, 113.61 0.71 M96.94 25.97 C104.15 18.31, 113.53 8.73, 118.59 1.07 M96.94 25.97 C104.5 15.54, 114.8 7.33, 118.59 1.07 M102.59 25.58 C110.87 17.63, 117.49 10.59, 124.24 0.67 M102.59 25.58 C106.06 21.24, 112.4 15.79, 124.24 0.67 M107.57 25.94 C115.71 18.05, 123.26 6.66, 129.22 1.03 M107.57 25.94 C112.08 21.81, 116.16 16.57, 129.22 1.03 M113.22 25.54 C120.04 15.94, 128.36 10.32, 134.87 0.64 M113.22 25.54 C119.69 18.41, 125.2 11.52, 134.87 0.64 M118.2 25.9 C123.08 20.93, 129.63 11.07, 139.85 1 M118.2 25.9 C123.89 18.16, 130.76 11.44, 139.85 1 M123.85 25.51 C128.85 18.33, 134.4 11.12, 145.5 0.6 M123.85 25.51 C129.86 19.86, 133.5 14.06, 145.5 0.6 M128.83 25.87 C138.32 16.25, 146.41 5.87, 150.48 0.96 M128.83 25.87 C135.41 18.22, 140.65 11.44, 150.48 0.96 M134.48 25.47 C141.32 16.02, 150.3 10.78, 155.47 1.32 M134.48 25.47 C139.74 17.69, 146.24 12.25, 155.47 1.32 M139.47 25.83 C145.37 19.66, 152.1 11, 161.11 0.93 M139.47 25.83 C145.77 19.6, 152.05 12.07, 161.11 0.93 M145.11 25.44 C150.14 18.49, 155.78 13.83, 166.1 1.29 M145.11 25.44 C149.98 20.48, 153.46 15.2, 166.1 1.29 M150.1 25.8 C157.63 16.31, 166.24 5.78, 171.75 0.89 M150.1 25.8 C159.05 16.15, 166 7.06, 171.75 0.89 M155.74 25.41 C165.36 16.89, 172.08 8.75, 176.73 1.25 M155.74 25.41 C163.52 17.13, 171.44 6.73, 176.73 1.25 M160.73 25.77 C165.35 18.14, 170.06 13.99, 182.38 0.86 M160.73 25.77 C168.09 16.06, 175.55 8.43, 182.38 0.86 M166.37 25.37 C173.89 20.56, 177 12.71, 187.36 1.22 M166.37 25.37 C174.86 15.6, 183.34 6.48, 187.36 1.22 M171.36 25.73 C176.26 17.77, 181.8 13.9, 193.01 0.83 M171.36 25.73 C176.05 19.63, 182.24 13.33, 193.01 0.83 M177 25.34 C183.07 17.01, 189.44 10.13, 197.34 1.94 M177 25.34 C181.4 19.57, 187.19 14.77, 197.34 1.94 M181.99 25.7 C186.09 19.22, 192.24 12.74, 201.01 3.81 M181.99 25.7 C185.71 20.41, 190.88 15.82, 201.01 3.81 M186.97 26.06 C191.9 18.22, 198.11 13.57, 201.41 9.45 M186.97 26.06 C192.3 19.87, 195.48 15.52, 201.41 9.45 M192.62 25.66 C194.74 22.26, 197.7 19.32, 201.14 15.85 M192.62 25.66 C194.57 23.6, 197.18 20.71, 201.14 15.85" stroke="#4c6ef5" stroke-width="0.5" fill="none"></path><path d="M6.25 0 M6.25 0 C69.17 3.03, 128.96 0.05, 194.75 0 M6.25 0 C57.01 -0.6, 109.54 -0.3, 194.75 0 M194.75 0 C199.09 1.36, 200.38 0.72, 201 6.25 M194.75 0 C199.66 -2.27, 202.89 3.8, 201 6.25 M201 6.25 C200.17 9.86, 201.93 11.09, 201 18.75 M201 6.25 C201.68 9.71, 201.14 13.22, 201 18.75 M201 18.75 C201.92 22.92, 198.63 24.93, 194.75 25 M201 18.75 C199.43 23.71, 196.9 24.92, 194.75 25 M194.75 25 C128.88 23.13, 59 25.64, 6.25 25 M194.75 25 C127.95 26.97, 62.18 26.27, 6.25 25 M6.25 25 C3.05 23.49, -0.13 23.13, 0 18.75 M6.25 25 C4.13 23.73, 0.86 22.03, 0 18.75 M0 18.75 C-0.58 13.69, -0.97 9.42, 0 6.25 M0 18.75 C-0.39 15.41, 0.62 11.05, 0 6.25 M0 6.25 C-1.13 3.14, 1.61 0.71, 6.25 0 M0 6.25 C-0.33 2.02, 3.95 2.18, 6.25 0" stroke="#fff" stroke-width="1" fill="none"></path></g><g transform="translate(181.10876989156176 273.2494448538815) rotate(0 83.74055480957031 4.785335207672404)"><text x="83.74055480957031" y="0" font-family="Virgil, Segoe UI Emoji" font-size="7.656536332275844px" fill="#fff" text-anchor="middle" style="white-space: pre;" direction="ltr" dominant-baseline="text-before-edge">What technologies are mentioned in the call?</text></g><g stroke-linecap="round"><g transform="translate(304.9279472747876 308.91294633067287) rotate(0 97.90000878858152 59.79928274956643)"><path d="M0.64 -0.29 C33.41 19.77, 163.76 99.46, 196.29 119.63 M-0.49 -1.48 C32.19 18.82, 162.98 101.01, 195.56 121.08" stroke="#fff" stroke-width="1" fill="none"></path></g><g transform="translate(304.9279472747876 308.91294633067287) rotate(0 97.90000878858152 59.79928274956643)"><path d="M8.11 -12.55 C6.06 -9.62, 5.37 -4.69, 1.53 0.94 M8.68 -13.08 C5.83 -9.45, 3.23 -6.29, 0.72 -0.91" stroke="#fff" stroke-width="1" fill="none"></path></g><g transform="translate(304.9279472747876 308.91294633067287) rotate(0 97.90000878858152 59.79928274956643)"><path d="M-7.55 13.04 C-5.22 8.96, -1.67 6.97, 1.53 0.94 M-6.98 12.5 C-5.38 8.76, -3.45 4.53, 0.72 -0.91" stroke="#fff" stroke-width="1" fill="none"></path></g><g transform="translate(304.9279472747876 308.91294633067287) rotate(0 97.90000878858152 59.79928274956643)"><path d="M196.72 119.88 L181.49 120.8 L189.1 108.63 L196.02 120.59" stroke="none" stroke-width="0" fill="#fff" fill-rule="evenodd"></path><path d="M195.21 121.61 C191.33 120.63, 188.73 121.61, 181.57 120.5 M195.78 121.08 C190.85 120.48, 186.21 119.42, 180.76 118.65 M180.77 118.94 C182.91 117.32, 182.3 114.97, 188.31 109.5 M180.19 119.85 C181.99 116.54, 183.11 113.94, 187.29 108.68 M186.59 108.2 C191.54 111.56, 192.97 117.12, 196.32 119.93 M187.59 109.14 C188.72 111.26, 191.31 114.79, 195.99 121.08 M195.56 121.08 C195.56 121.08, 195.56 121.08, 195.56 121.08 M195.56 121.08 C195.56 121.08, 195.56 121.08, 195.56 121.08" stroke="#fff" stroke-width="1" fill="none"></path></g></g><mask></mask><g transform="translate(353.3095663320112 319.1141469819101) rotate(0 105.11687469482422 8.141406485452649)"><text x="0" y="0" font-family="Virgil, Segoe UI Emoji" font-size="13.026250376724217px" fill="#fff" text-anchor="start" style="white-space: pre;" direction="ltr" dominant-baseline="text-before-edge">Convert question into embeddings</text></g><g transform="translate(566.0301729141127 322.345342621157) rotate(0 24.00635528564453 6.799071946498259)"><text x="0" y="0" font-family="Virgil, Segoe UI Emoji" font-size="10.878515114397194px" fill="#fff" text-anchor="start" style="white-space: pre;" direction="ltr" dominant-baseline="text-before-edge">(vectors)</text></g><g stroke-linecap="round"><g transform="translate(630.9321813147501 459.5838174226672) rotate(0 56.720736193219295 -23.491716266553794)"><path d="M-0.33 0.75 C18.76 -7.4, 94.57 -39.67, 113.78 -47.73 M1.69 0.1 C20.68 -7.37, 93.86 -38.63, 112.67 -46.39" stroke="#fff" stroke-width="1" fill="none"></path></g><g transform="translate(630.9321813147501 459.5838174226672) rotate(0 56.720736193219295 -23.491716266553794)"><path d="M-5.27 -13.43 C-5.17 -8.83, -3.68 -7.76, -0.64 0.1 M-6.77 -13.25 C-5.03 -10.65, -3.77 -6.45, 0.4 0.92" stroke="#fff" stroke-width="1" fill="none"></path></g><g transform="translate(630.9321813147501 459.5838174226672) rotate(0 56.720736193219295 -23.491716266553794)"><path d="M6.47 14.18 C3.58 12.34, 2.35 7, -0.64 0.1 M4.97 14.36 C3.89 10.76, 2.56 8.87, 0.4 0.92" stroke="#fff" stroke-width="1" fill="none"></path></g><g transform="translate(630.9321813147501 459.5838174226672) rotate(0 56.720736193219295 -23.491716266553794)"><path d="M114.35 -47.64 L103.8 -34.39 L99.28 -47.63 L111.8 -44.64" stroke="none" stroke-width="0" fill="#fff" fill-rule="evenodd"></path><path d="M113.61 -46.76 C109.98 -42.83, 107.77 -42.39, 102.29 -35.93 M112.1 -46.58 C110.3 -44.71, 108.04 -41.11, 103.33 -35.11 M103.48 -35.61 C101.73 -38.09, 99.94 -40.76, 97.3 -47.87 M102.94 -35.19 C101.89 -37.82, 100.56 -40.66, 98.14 -47.39 M96.63 -47.65 C103.41 -45.68, 109.4 -46.69, 113.49 -45.28 M98.37 -46.75 C103.08 -46.29, 108.13 -46.04, 112.57 -45.67 M112.67 -46.39 C112.67 -46.39, 112.67 -46.39, 112.67 -46.39 M112.67 -46.39 C112.67 -46.39, 112.67 -46.39, 112.67 -46.39" stroke="#fff" stroke-width="1" fill="none"></path></g></g><mask></mask><g stroke-linecap="round" transform="translate(769.1306768261642 338.65729950221055) rotate(0 53.044718248803974 60.70067903024071)"><path d="M6.4 6.89 C6.4 6.89, 6.4 6.89, 6.4 6.89 M6.4 6.89 C6.4 6.89, 6.4 6.89, 6.4 6.89 M3.52 16.31 C8.44 10.75, 11.82 7.6, 15.98 1.97 M3.52 16.31 C7.63 10.63, 13.27 6.16, 15.98 1.97 M3.26 22.71 C8.83 16.75, 10.99 13.5, 21.63 1.57 M3.26 22.71 C9.39 14.82, 15.04 7.39, 21.63 1.57 M3 29.1 C8.71 20.95, 19.34 14.53, 27.27 1.18 M3 29.1 C8.68 22.93, 13.56 17.15, 27.27 1.18 M3.39 34.75 C12.3 23.45, 23.23 15.82, 32.91 0.78 M3.39 34.75 C11.41 23.66, 21.29 14.65, 32.91 0.78 M3.13 41.14 C13.8 31.62, 20.8 17.65, 37.9 1.15 M3.13 41.14 C10.71 32.42, 17.43 25.87, 37.9 1.15 M2.87 47.54 C17.89 30.78, 34.74 13.25, 43.54 0.75 M2.87 47.54 C13.94 35.03, 26.51 21.77, 43.54 0.75 M3.26 53.19 C19.56 34.8, 33.22 17.62, 48.53 1.11 M3.26 53.19 C16.51 37.37, 31.2 21.21, 48.53 1.11 M3 59.58 C21.72 38.73, 37.28 17.41, 54.17 0.72 M3 59.58 C24.28 35.5, 43.56 13.46, 54.17 0.72 M2.74 65.98 C12.88 51.66, 27.13 40.51, 59.16 1.08 M2.74 65.98 C22.67 43.59, 43.38 18.73, 59.16 1.08 M3.13 71.62 C24.34 45.18, 47.73 19.5, 64.15 1.44 M3.13 71.62 C21.12 51.18, 39.32 28.97, 64.15 1.44 M2.87 78.02 C24.03 55.59, 42.29 33.45, 69.79 1.04 M2.87 78.02 C28.29 47.87, 55.39 17.75, 69.79 1.04 M2.61 84.42 C19.17 64.55, 38.5 43.49, 74.78 1.4 M2.61 84.42 C28.4 56.37, 53.81 26.33, 74.78 1.4 M3 90.06 C31.2 56.72, 60.24 23.28, 80.42 1.01 M3 90.06 C19.33 70.41, 35.55 52.87, 80.42 1.01 M2.09 97.22 C32.43 63.05, 63.43 30.16, 86.06 0.61 M2.09 97.22 C19.45 76.51, 38.4 55.19, 86.06 0.61 M3.14 102.1 C31.84 67.13, 62.18 34.02, 90.39 1.73 M3.14 102.1 C26.52 74.63, 52.19 47.77, 90.39 1.73 M4.84 106.24 C39.27 65.8, 71.8 28.9, 94.07 3.6 M4.84 106.24 C30.08 77.45, 54.47 48.49, 94.07 3.6 M5.24 111.88 C35.95 79.39, 61.24 49.39, 97.74 5.47 M5.24 111.88 C27.86 86.97, 50.04 60.99, 97.74 5.47 M7.6 115.26 C43.97 72.26, 79.68 32.6, 100.76 8.09 M7.6 115.26 C43.8 71.73, 80.67 29.34, 100.76 8.09 M10.62 117.88 C30.08 96.35, 51.17 71.6, 103.13 11.47 M10.62 117.88 C46.4 77.71, 80.17 38.07, 103.13 11.47 M14.95 119 C49.59 80.79, 78.74 46.66, 104.18 16.36 M14.95 119 C49.08 80.4, 83.9 42.42, 104.18 16.36 M18.63 120.87 C40.06 98.06, 56.73 74.29, 105.88 20.49 M18.63 120.87 C48.09 86.16, 79.74 50.48, 105.88 20.49 M22.3 122.74 C42.11 98.22, 67.37 71.75, 106.93 25.38 M22.3 122.74 C48.57 90.55, 76.52 60, 106.93 25.38 M27.29 123.1 C43.71 105.47, 61.34 84.79, 109.3 28.76 M27.29 123.1 C46.03 100.73, 65.34 76.3, 109.3 28.76 M32.93 122.7 C57.41 95.8, 79.89 68.52, 109.03 35.16 M32.93 122.7 C52.06 102.01, 71.45 81.44, 109.03 35.16 M37.92 123.06 C66.01 91.32, 90.53 63.56, 108.77 41.55 M37.92 123.06 C62.53 95.96, 86.82 68.01, 108.77 41.55 M43.56 122.67 C68.53 93.26, 91.49 66.93, 109.17 47.2 M43.56 122.67 C61.28 103.88, 77.59 83.93, 109.17 47.2 M48.55 123.03 C68.46 103.62, 86.21 81.44, 108.91 53.6 M48.55 123.03 C69.19 99.36, 92.1 74.95, 108.91 53.6 M54.19 122.63 C74.86 98.27, 92.93 78.55, 109.3 59.24 M54.19 122.63 C64.32 110.06, 75.72 97.2, 109.3 59.24 M59.18 122.99 C71.26 108.73, 84.9 91.51, 109.04 65.64 M59.18 122.99 C78.07 102.02, 97.35 79.66, 109.04 65.64 M64.17 123.35 C73.26 112.76, 83.84 101.06, 108.78 72.03 M64.17 123.35 C75.07 113.01, 83.69 101.23, 108.78 72.03 M69.81 122.96 C83.96 109.81, 95.85 91.74, 109.17 77.68 M69.81 122.96 C83.67 107.58, 98.16 91.98, 109.17 77.68 M74.8 123.32 C83.58 110.67, 94.18 98.14, 108.91 84.07 M74.8 123.32 C86.39 109.51, 98.39 95.58, 108.91 84.07 M81.1 122.17 C89.46 116.18, 94.4 106.93, 109.31 89.72 M81.1 122.17 C91.81 110.72, 101.67 97.24, 109.31 89.72 M87.39 121.02 C92.29 113.48, 99.73 107.06, 108.39 96.87 M87.39 121.02 C95.53 112.4, 102.26 104.19, 108.39 96.87 M94.35 119.12 C97.67 112.97, 102.27 107.62, 106.16 105.53 M94.35 119.12 C97.1 116.02, 99.7 112.71, 106.16 105.53" stroke="#4c6ef5" stroke-width="0.5" fill="none"></path><path d="M26.52 0 M26.52 0 C46.7 -1.99, 65.06 1.02, 79.57 0 M26.52 0 C41.64 -0.42, 55.66 0.8, 79.57 0 M79.57 0 C97.53 1.63, 106.53 7.36, 106.09 26.52 M79.57 0 C97.03 -1.5, 105.3 7.11, 106.09 26.52 M106.09 26.52 C107.51 42.14, 105.97 57.29, 106.09 94.88 M106.09 26.52 C105.65 46.11, 105.64 64.81, 106.09 94.88 M106.09 94.88 C104.77 111.13, 99.06 121.75, 79.57 121.4 M106.09 94.88 C104.4 113.94, 97.76 122.81, 79.57 121.4 M79.57 121.4 C66.05 123.31, 49.15 123.28, 26.52 121.4 M79.57 121.4 C59.77 120.6, 39.82 122.2, 26.52 121.4 M26.52 121.4 C9.41 121.6, -0.96 111.03, 0 94.88 M26.52 121.4 C8.7 119.13, 0.85 114.11, 0 94.88 M0 94.88 C-0.42 81.31, 0.3 68.6, 0 26.52 M0 94.88 C-0.24 74.98, -1.07 54.33, 0 26.52 M0 26.52 C-1.4 9.12, 9.6 1.61, 26.52 0 M0 26.52 C1.8 10.84, 8.98 0.17, 26.52 0" stroke="#fff" stroke-width="1" fill="none"></path></g><g transform="translate(779.1858931218432 377.84443751206095) rotate(0 42.989501953125 21.513541020390335)"><text x="42.989501953125" y="0" font-family="Virgil, Segoe UI Emoji" font-size="11.473888544208172px" fill="#fff" text-anchor="middle" style="white-space: pre;" direction="ltr" dominant-baseline="text-before-edge">Relevant text </text><text x="42.989501953125" y="14.342360680260215" font-family="Virgil, Segoe UI Emoji" font-size="11.473888544208172px" fill="#fff" text-anchor="middle" style="white-space: pre;" direction="ltr" dominant-baseline="text-before-edge">(docs) in the </text><text x="42.989501953125" y="28.68472136052043" font-family="Virgil, Segoe UI Emoji" font-size="11.473888544208172px" fill="#fff" text-anchor="middle" style="white-space: pre;" direction="ltr" dominant-baseline="text-before-edge">vectore store</text></g><g stroke-linecap="round"><g transform="translate(310.0591573543478 232.7158563041869) rotate(0 101.28352763844416 0.06824315284168847)"><path d="M-1.04 0 C32.86 0.03, 169.75 -0.05, 203.6 0.01 M0.62 -1.05 C34.39 -0.85, 169.02 0.77, 203.01 1.18" stroke="#fff" stroke-width="1" fill="none"></path></g><g transform="translate(310.0591573543478 232.7158563041869) rotate(0 101.28352763844416 0.06824315284168847)"><path d="M-1.04 -14.15 C-1.92 -11.23, -1.52 -6, -1.25 1.21 M-0.68 -15.74 C-1.11 -11.08, -0.91 -7.46, -1.15 0.5" stroke="#fff" stroke-width="1" fill="none"></path></g><g transform="translate(310.0591573543478 232.7158563041869) rotate(0 101.28352763844416 0.06824315284168847)"><path d="M-1.04 15.85 C-1.87 9.17, -1.47 4.79, -1.25 1.21 M-0.67 14.26 C-0.92 11.11, -0.72 6.93, -1.15 0.5" stroke="#fff" stroke-width="1" fill="none"></path></g><g transform="translate(310.0591573543478 232.7158563041869) rotate(0 101.28352763844416 0.06824315284168847)"><path d="M203.48 -0.66 L191.18 5.88 L188.63 -6.31 L203.8 -0.53" stroke="none" stroke-width="0" fill="#fff" fill-rule="evenodd"></path><path d="M203.01 2.03 C197.76 2.01, 193.79 4.41, 189.12 8.57 M203.37 0.45 C199.44 2.87, 196.08 4.19, 189.23 7.86 M189.3 6.92 C188.67 5.01, 190.6 2.26, 189.45 -5.04 M188.77 7.71 C189.73 3.21, 189.26 0.34, 189.29 -5.59 M190.33 -5.05 C192.99 -3.84, 193.97 -2.75, 203.28 0.71 M188.97 -5.16 C193.32 -3.57, 199.1 -0.32, 202.5 1.71 M203.01 1.18 C203.01 1.18, 203.01 1.18, 203.01 1.18 M203.01 1.18 C203.01 1.18, 203.01 1.18, 203.01 1.18" stroke="#fff" stroke-width="1" fill="none"></path></g></g><mask></mask><g stroke-linecap="round" transform="translate(527.2053323370712 197.91719679502393) rotate(0 66.58156903951812 35.746675171864325)"><path d="M4.76 4.14 C4.76 4.14, 4.76 4.14, 4.76 4.14 M4.76 4.14 C4.76 4.14, 4.76 4.14, 4.76 4.14 M1.22 14.31 C4.71 10.58, 7.46 9.54, 11.71 2.23 M1.22 14.31 C4.09 11.07, 5.47 8.54, 11.71 2.23 M0.95 20.7 C6.91 13.14, 15.43 6.74, 18.67 0.33 M0.95 20.7 C4.85 17.13, 9.05 11.75, 18.67 0.33 M1.35 26.35 C7.56 22.5, 9.95 16.07, 23.65 0.69 M1.35 26.35 C7.31 19.66, 12.49 13.73, 23.65 0.69 M1.09 32.75 C10.07 24.76, 18.8 12.89, 29.3 0.29 M1.09 32.75 C11.03 22.6, 19.14 10.35, 29.3 0.29 M0.83 39.14 C11.51 26.2, 20.06 16.44, 34.29 0.65 M0.83 39.14 C10.84 29, 20.5 15.89, 34.29 0.65 M1.22 44.79 C12.68 30.5, 23.34 20.32, 39.93 0.26 M1.22 44.79 C12.62 32.06, 24.31 19.07, 39.93 0.26 M0.96 51.18 C10.27 38.34, 22.94 24.14, 44.92 0.62 M0.96 51.18 C14.24 35.18, 28.13 20.81, 44.92 0.62 M0.7 57.58 C16.84 37.35, 35.99 17.03, 50.56 0.22 M0.7 57.58 C20.33 36.76, 38.4 15.45, 50.56 0.22 M1.75 62.47 C19.05 44.48, 36.24 23.45, 55.55 0.58 M1.75 62.47 C14.25 47.48, 28.92 32.21, 55.55 0.58 M4.11 65.85 C17.25 51.99, 29.56 36.58, 61.19 0.19 M4.11 65.85 C24.6 43.55, 44.6 19.99, 61.19 0.19 M7.13 68.47 C21.09 51.5, 39.41 33.3, 66.18 0.55 M7.13 68.47 C25.4 48.28, 41.85 27.62, 66.18 0.55 M10.15 71.1 C20.93 56.67, 37.12 43.08, 71.16 0.91 M10.15 71.1 C28.36 49.06, 48.58 26.63, 71.16 0.91 M14.48 72.21 C28.03 54.75, 41.11 41.38, 76.81 0.52 M14.48 72.21 C27.43 56.29, 42.89 40.05, 76.81 0.52 M19.47 72.57 C39.26 50.23, 56.93 30.91, 81.79 0.88 M19.47 72.57 C37.72 52.24, 56.84 28.56, 81.79 0.88 M24.45 72.93 C42.5 53.96, 56.37 32.81, 87.44 0.48 M24.45 72.93 C37.68 58.68, 51.39 41.73, 87.44 0.48 M30.1 72.54 C48.97 52.69, 67.26 30.77, 92.42 0.84 M30.1 72.54 C44.34 57.59, 56.87 41.89, 92.42 0.84 M35.08 72.9 C49.22 58.38, 64.25 38.7, 98.07 0.45 M35.08 72.9 C52.97 53.04, 68.65 34.43, 98.07 0.45 M40.73 72.5 C59.45 54.08, 75.94 32.17, 103.05 0.81 M40.73 72.5 C58.75 52.42, 75.21 32.46, 103.05 0.81 M45.71 72.86 C62.64 55.34, 76.58 42.07, 108.7 0.41 M45.71 72.86 C71.13 44.64, 96.01 16.58, 108.7 0.41 M51.36 72.47 C72.03 52.01, 90.99 27.58, 113.68 0.77 M51.36 72.47 C66.34 56.7, 79.25 39.5, 113.68 0.77 M56.34 72.83 C80.88 45.79, 102.43 18.57, 118.01 1.89 M56.34 72.83 C79.93 43.48, 105.06 16.94, 118.01 1.89 M61.99 72.43 C83.78 48.53, 107.58 20.19, 122.34 3 M61.99 72.43 C82.18 50.42, 102.15 27.41, 122.34 3 M66.97 72.79 C84.63 52.92, 103.75 32.02, 127.33 3.36 M66.97 72.79 C87.27 50.84, 106.96 27.92, 127.33 3.36 M72.62 72.4 C96.11 47.73, 118.73 21.12, 130.35 5.99 M72.62 72.4 C90.17 52.16, 107.5 32.05, 130.35 5.99 M77.6 72.76 C99.12 49.5, 120.85 23.43, 132.71 9.36 M77.6 72.76 C98.64 49.49, 119.79 24.53, 132.71 9.36 M82.59 73.12 C95.7 58.82, 107.2 47.57, 133.76 14.25 M82.59 73.12 C93.9 59.54, 105.98 46.19, 133.76 14.25 M88.23 72.73 C104.2 55.87, 120.56 39.11, 133.5 20.65 M88.23 72.73 C99.57 60.88, 110.37 46.64, 133.5 20.65 M93.22 73.09 C106.99 56.71, 118.57 40.15, 133.9 26.29 M93.22 73.09 C104.98 58.53, 118.31 44.08, 133.9 26.29 M98.86 72.69 C113.11 54.7, 127.91 42.34, 133.64 32.69 M98.86 72.69 C111.2 57.89, 123.25 42.94, 133.64 32.69 M103.85 73.05 C115.34 60.21, 129.07 43.67, 134.03 38.33 M103.85 73.05 C116.11 59.49, 126.22 46.79, 134.03 38.33 M109.49 72.66 C117.49 63.73, 129.67 51.5, 133.77 44.73 M109.49 72.66 C118.65 61.81, 126.84 52.55, 133.77 44.73 M115.79 71.51 C124.05 63.93, 130.16 55.15, 134.16 50.38 M115.79 71.51 C120.57 66.23, 124.58 60.02, 134.16 50.38 M121.44 71.11 C122.54 67.52, 126.48 65.98, 135.21 55.26 M121.44 71.11 C127.04 64.91, 132.07 60.06, 135.21 55.26" stroke="#4c6ef5" stroke-width="0.5" fill="none"></path><path d="M17.87 0 M17.87 0 C40.65 1.26, 60 1.27, 115.29 0 M17.87 0 C42.06 -1.22, 66.51 0.34, 115.29 0 M115.29 0 C128.8 -1.14, 132.78 4.02, 133.16 17.87 M115.29 0 C128.95 0.82, 131.29 4.08, 133.16 17.87 M133.16 17.87 C133.38 25.56, 134.74 37.66, 133.16 53.62 M133.16 17.87 C133.42 27.2, 132.51 38.38, 133.16 53.62 M133.16 53.62 C133.33 63.66, 126.12 72.73, 115.29 71.49 M133.16 53.62 C131.21 65.91, 127.02 70.32, 115.29 71.49 M115.29 71.49 C81.23 73.71, 46.13 73.07, 17.87 71.49 M115.29 71.49 C80.18 71.44, 44.71 71.87, 17.87 71.49 M17.87 71.49 C5.29 72.9, -0.36 67.48, 0 53.62 M17.87 71.49 C7.09 71.69, -1.5 63.57, 0 53.62 M0 53.62 C0.98 46.41, -1.26 40, 0 17.87 M0 53.62 C-0.25 46.35, 0.09 40.06, 0 17.87 M0 17.87 C1.55 4.74, 7.92 -0.52, 17.87 0 M0 17.87 C0.68 7.82, 8.18 0.76, 17.87 0" stroke="#fff" stroke-width="1" fill="none"></path></g><g transform="translate(533.6808604219996 212.02348839628013) rotate(0 60.106040954589844 21.64038357060811)"><text x="60.106040954589844" y="0" font-family="Virgil, Segoe UI Emoji" font-size="11.541537904324318px" fill="#fff" text-anchor="middle" style="white-space: pre;" direction="ltr" dominant-baseline="text-before-edge">Question</text><text x="60.106040954589844" y="14.426922380405397" font-family="Virgil, Segoe UI Emoji" font-size="11.541537904324318px" fill="#fff" text-anchor="middle" style="white-space: pre;" direction="ltr" dominant-baseline="text-before-edge">+</text><text x="60.106040954589844" y="28.853844760810794" font-family="Virgil, Segoe UI Emoji" font-size="11.541537904324318px" fill="#fff" text-anchor="middle" style="white-space: pre;" direction="ltr" dominant-baseline="text-before-edge">Relevant text (docs)</text></g><g stroke-linecap="round"><g transform="translate(768.296407036538 354.6780041312319) rotate(0 -58.55223589955136 -37.49352037908983)"><path d="M-0.13 -0.52 C-19.51 -13.42, -96.59 -64.04, -115.96 -76.8 M-1.66 1.82 C-21.23 -11, -97.67 -62.66, -116.97 -75.69" stroke="#fff" stroke-width="1" fill="none"></path></g><g transform="translate(768.296407036538 354.6780041312319) rotate(0 -58.55223589955136 -37.49352037908983)"><path d="M-9.04 11.86 C-6.8 7.28, -4.52 3.95, 1.01 -0.96 M-9.1 11.93 C-5.17 7.49, -1.37 2.86, -0.69 -1.15" stroke="#fff" stroke-width="1" fill="none"></path></g><g transform="translate(768.296407036538 354.6780041312319) rotate(0 -58.55223589955136 -37.49352037908983)"><path d="M7.46 -13.19 C4.5 -9.69, 1.44 -4.92, 1.01 -0.96 M7.4 -13.12 C4.71 -7.71, 2.05 -2.54, -0.69 -1.15" stroke="#fff" stroke-width="1" fill="none"></path></g><g transform="translate(768.296407036538 354.6780041312319) rotate(0 -58.55223589955136 -37.49352037908983)"><path d="M-118.5 -75.92 L-104.01 -72.4 L-107.96 -64.75 L-115.07 -75.66" stroke="none" stroke-width="0" fill="#fff" fill-rule="evenodd"></path><path d="M-117.62 -75.83 C-113.19 -75.6, -108.79 -74.12, -101.01 -73.78 M-117.69 -75.77 C-111.29 -74.4, -104.92 -73.22, -102.71 -73.96 M-100.98 -72.15 C-102.92 -70.6, -106.66 -67.28, -108.89 -61.82 M-101.57 -73.85 C-104.25 -69.93, -106.68 -66.69, -109.76 -62.47 M-108.83 -62.69 C-110.75 -66.24, -113.14 -70.24, -117.29 -76.18 M-108.82 -63.52 C-112.82 -66.95, -114.72 -73.05, -116.32 -76.24 M-116.97 -75.69 C-116.97 -75.69, -116.97 -75.69, -116.97 -75.69 M-116.97 -75.69 C-116.97 -75.69, -116.97 -75.69, -116.97 -75.69" stroke="#fff" stroke-width="1" fill="none"></path></g></g><mask></mask><g transform="translate(626.0996397755806 454.047562968605) rotate(332.7295888737834 71.5998764038086 6.659977106897713)"><text x="0" y="0" font-family="Virgil, Segoe UI Emoji" font-size="10.655963371036359px" fill="#fff" text-anchor="start" style="white-space: pre;" direction="ltr" dominant-baseline="text-before-edge">Search for embedded text </text></g><g stroke-linecap="round"><g transform="translate(661.4090134803123 232.51873468438873) rotate(0 49.07333945686389 -0.08947751925390435)"><path d="M-1.1 -1.06 C15.46 -1.09, 82.67 0.42, 99.25 0.63 M0.53 1 C16.97 0.55, 82.39 -1.26, 98.53 -1.17" stroke="#fff" stroke-width="1" fill="none"></path></g><g transform="translate(661.4090134803123 232.51873468438873) rotate(0 49.07333945686389 -0.08947751925390435)"><path d="M-2.18 -15.51 C-0.06 -12.22, -0.71 -6.31, -0.81 0.27 M-0.81 -16.77 C-0.5 -12.65, -1.46 -10.25, -1.42 -0.42" stroke="#fff" stroke-width="1" fill="none"></path></g><g transform="translate(661.4090134803123 232.51873468438873) rotate(0 49.07333945686389 -0.08947751925390435)"><path d="M-2.67 14.49 C-0.6 9.03, -1.11 6.18, -0.81 0.27 M-1.31 13.23 C-0.67 10.96, -1.52 6.98, -1.42 -0.42" stroke="#fff" stroke-width="1" fill="none"></path></g><g transform="translate(661.4090134803123 232.51873468438873) rotate(0 49.07333945686389 -0.08947751925390435)"><path d="M99.16 -1.88 L83.04 6.49 L85.56 -8.99 L97.75 -0.25" stroke="none" stroke-width="0" fill="#fff" fill-rule="evenodd"></path><path d="M97.2 -0.62 C95.4 0.07, 90.87 3.51, 85.31 6.68 M98.57 -1.88 C96.12 0.52, 92.34 1.12, 84.7 6 M84.47 5.26 C84.65 1.7, 86.23 -4.94, 85.7 -6.42 M84.79 5 C85.39 3.17, 85.22 0.33, 84.88 -7.81 M85.63 -8.19 C90.42 -6.09, 94.04 -2.82, 97.6 -0.24 M84.6 -7.46 C90.38 -5.09, 95.41 -2.42, 98.69 -0.48 M98.53 -1.17 C98.53 -1.17, 98.53 -1.17, 98.53 -1.17 M98.53 -1.17 C98.53 -1.17, 98.53 -1.17, 98.53 -1.17" stroke="#fff" stroke-width="1" fill="none"></path></g></g><mask></mask><g stroke-linecap="round" transform="translate(769.0586820657387 190.28270801638553) rotate(0 73.95508421485346 41.82287521115853)"><path d="M3.1 7.99 C3.1 7.99, 3.1 7.99, 3.1 7.99 M3.1 7.99 C3.1 7.99, 3.1 7.99, 3.1 7.99 M0.87 16.65 C3.98 12.81, 6.65 10.92, 10.71 5.33 M0.87 16.65 C3.52 14, 6.27 10.25, 10.71 5.33 M1.26 22.3 C6.49 15.55, 9.34 13.14, 17.66 3.43 M1.26 22.3 C6 17.88, 9.99 12.13, 17.66 3.43 M1 28.69 C8.21 20.92, 18.8 8.46, 23.96 2.28 M1 28.69 C9.92 19.27, 18.32 8.65, 23.96 2.28 M0.74 35.09 C8.24 22.46, 17.82 14.65, 28.95 2.64 M0.74 35.09 C11.69 23.08, 20.8 10.36, 28.95 2.64 M1.13 40.73 C9.64 30.98, 16.2 24.74, 34.59 2.24 M1.13 40.73 C13.11 27.11, 23.59 15.52, 34.59 2.24 M0.87 47.13 C10.61 38, 19.68 28.31, 39.58 2.6 M0.87 47.13 C11.68 35.13, 20.67 23.7, 39.58 2.6 M1.27 52.78 C14.24 37.39, 29.3 22.3, 45.22 2.21 M1.27 52.78 C12.55 41, 22.51 27.8, 45.22 2.21 M1 59.17 C14.77 44.28, 26.4 26.68, 50.21 2.57 M1 59.17 C13.46 46.35, 26.41 30.39, 50.21 2.57 M0.74 65.57 C17.52 45.89, 33.7 27.04, 55.85 2.18 M0.74 65.57 C14.15 49.72, 29.53 33.62, 55.85 2.18 M2.45 69.7 C19.01 49.13, 36.87 32.69, 60.84 2.54 M2.45 69.7 C13.69 56.34, 27.36 42.96, 60.84 2.54 M4.16 73.84 C25.01 48.98, 47.3 20.61, 66.48 2.14 M4.16 73.84 C22.08 55.45, 37.61 35.56, 66.48 2.14 M5.86 77.97 C23.35 58.52, 41.88 36.04, 71.47 2.5 M5.86 77.97 C23.69 57.13, 41.72 35.93, 71.47 2.5 M8.23 81.35 C23.92 64.47, 35.94 47.21, 76.46 2.86 M8.23 81.35 C23.95 63.37, 39.96 44.48, 76.46 2.86 M13.21 81.71 C31.61 58.49, 53.56 36.39, 82.1 2.47 M13.21 81.71 C37.25 53.72, 59.79 27.7, 82.1 2.47 M17.54 82.83 C40.04 57.31, 60.52 30.79, 87.09 2.83 M17.54 82.83 C38.55 58.28, 60.33 33.6, 87.09 2.83 M21.87 83.94 C39.66 61.17, 60.89 40.13, 92.73 2.43 M21.87 83.94 C47.19 53.37, 74.34 22.54, 92.73 2.43 M26.86 84.3 C47.28 61.39, 65.01 41.48, 97.72 2.79 M26.86 84.3 C43.63 65.33, 59.78 45.87, 97.72 2.79 M32.5 83.91 C55 55.67, 78.13 30.53, 103.36 2.4 M32.5 83.91 C49.53 62.07, 69.21 42.67, 103.36 2.4 M37.49 84.27 C51.65 67.87, 70.52 48.47, 108.35 2.76 M37.49 84.27 C64.93 51.66, 91.33 22.07, 108.35 2.76 M42.48 84.63 C63.59 63.91, 79.62 41.83, 113.99 2.36 M42.48 84.63 C69.63 52.85, 96.18 21.1, 113.99 2.36 M48.12 84.23 C65.5 61.31, 83.32 43.92, 118.98 2.72 M48.12 84.23 C72.16 56.82, 95.95 29.72, 118.98 2.72 M53.11 84.59 C78.69 56.65, 99.13 32.36, 124.62 2.33 M53.11 84.59 C72.9 64.12, 91.43 41.6, 124.62 2.33 M58.75 84.2 C86.77 51.18, 112.72 20.22, 129.61 2.69 M58.75 84.2 C78.03 62.13, 95.36 39.9, 129.61 2.69 M63.74 84.56 C89.87 54.63, 115.27 25.81, 133.94 3.8 M63.74 84.56 C85.27 59.37, 107.73 33.11, 133.94 3.8 M69.38 84.16 C94.98 54.92, 124.91 21.14, 139.58 3.41 M69.38 84.16 C96.16 53.44, 121.64 22.72, 139.58 3.41 M74.37 84.52 C94.73 60.33, 112.31 41.35, 142.6 6.03 M74.37 84.52 C91.31 64.66, 108.71 44.28, 142.6 6.03 M80.01 84.13 C104.9 56.33, 126.63 28.08, 145.62 8.66 M80.01 84.13 C97.15 65.08, 114.55 44.4, 145.62 8.66 M85 84.49 C101.61 65.83, 115.08 47.61, 147.32 12.79 M85 84.49 C104.59 62.63, 124.44 39.78, 147.32 12.79 M90.64 84.09 C109.71 60.79, 130.51 36.91, 149.03 16.92 M90.64 84.09 C110.57 60.96, 130.92 38.1, 149.03 16.92 M95.63 84.45 C109.77 68.49, 122.89 52.47, 148.77 23.32 M95.63 84.45 C107.4 69.88, 121.33 55.27, 148.77 23.32 M101.27 84.06 C118.55 67.12, 134.15 44.66, 149.16 28.97 M101.27 84.06 C113.64 70.3, 124.53 56.76, 149.16 28.97 M106.26 84.42 C117.71 68.73, 134 54.95, 148.9 35.36 M106.26 84.42 C118.75 69.54, 130.99 55.76, 148.9 35.36 M111.9 84.02 C123.79 73.76, 131.92 62.53, 149.3 41.01 M111.9 84.02 C119.69 74.66, 126.89 66.18, 149.3 41.01 M116.89 84.38 C125.02 74.86, 134.93 63.79, 149.04 47.4 M116.89 84.38 C123.07 77.39, 131.25 68, 149.04 47.4 M122.53 83.99 C134.32 71.5, 143.75 59.35, 149.43 53.05 M122.53 83.99 C130.22 75.76, 135.01 69.4, 149.43 53.05 M127.52 84.35 C133.49 76.61, 142.64 67.35, 149.17 59.44 M127.52 84.35 C133.88 76.91, 140.68 69.76, 149.17 59.44 M134.47 82.45 C140.7 75.01, 142.98 71.44, 150.22 64.33 M134.47 82.45 C138.22 77.59, 141.35 74.51, 150.22 64.33" stroke="#fa5252" stroke-width="0.5" fill="none"></path><path d="M20.91 0 M20.91 0 C59.07 -0.16, 98.56 0.36, 127 0 M20.91 0 C54.96 1.08, 88.51 0.74, 127 0 M127 0 C142.81 1.46, 147.71 7.41, 147.91 20.91 M127 0 C140.93 -0.85, 147.78 4.95, 147.91 20.91 M147.91 20.91 C146.13 32.31, 147.19 41.73, 147.91 62.73 M147.91 20.91 C148.68 32.64, 148.82 45.37, 147.91 62.73 M147.91 62.73 C148.83 77.86, 140.49 82.17, 127 83.65 M147.91 62.73 C149.81 74.57, 141.37 82.69, 127 83.65 M127 83.65 C93.69 85.24, 57.03 83, 20.91 83.65 M127 83.65 C97.82 84.64, 68.14 83.94, 20.91 83.65 M20.91 83.65 C6.8 82.61, 1.8 77.17, 0 62.73 M20.91 83.65 C9.12 81.56, 0.26 77.25, 0 62.73 M0 62.73 C-0.38 52.86, -0.33 43.84, 0 20.91 M0 62.73 C-0.13 46.14, -0.84 29.28, 0 20.91 M0 20.91 C1.33 6.93, 5.25 1.48, 20.91 0 M0 20.91 C-1.79 8.49, 7.51 -0.07, 20.91 0" stroke="#fff" stroke-width="1" fill="none"></path></g><g transform="translate(788.53251933235 215.61382719008242) rotate(0 54.48124694824219 16.491756037461613)"><text x="54.48124694824219" y="0" font-family="Virgil, Segoe UI Emoji" font-size="13.193404829969296px" fill="#fff" text-anchor="middle" style="white-space: pre;" direction="ltr" dominant-baseline="text-before-edge">Large Language </text><text x="54.48124694824219" y="16.49175603746162" font-family="Virgil, Segoe UI Emoji" font-size="13.193404829969296px" fill="#fff" text-anchor="middle" style="white-space: pre;" direction="ltr" dominant-baseline="text-before-edge">Model (GPT-3.5)</text></g><g transform="translate(719.4038507112041 157.63537059741634) rotate(0 147.09405517578125 15.67603037971088)"><text x="0" y="0" font-family="Virgil, Segoe UI Emoji" font-size="12.5408243037687px" fill="#fff" text-anchor="start" style="white-space: pre;" direction="ltr" dominant-baseline="text-before-edge">Ask GPT-3.5 to generate a response based on</text><text x="0" y="15.676030379710875" font-family="Virgil, Segoe UI Emoji" font-size="12.5408243037687px" fill="#fff" text-anchor="start" style="white-space: pre;" direction="ltr" dominant-baseline="text-before-edge">standalone question and relevant docs</text></g><g stroke-linecap="round"><g transform="translate(920.5398078883429 232.01623684668908) rotate(0 76.25390421269833 0.4314117075805939)"><path d="M-0.72 0.45 C24.97 0.28, 127.47 0.01, 153.23 0.16 M1.1 -0.35 C26.74 0.11, 127.06 0.68, 152.47 1.22" stroke="#fff" stroke-width="1" fill="none"></path></g><g transform="translate(920.5398078883429 232.01623684668908) rotate(0 76.25390421269833 0.4314117075805939)"><path d="M-0.2 -14.08 C-1.75 -9.95, -0.22 -6.48, -0.96 -0.42 M-1.41 -13.93 C-1.36 -10.57, 0.02 -7.29, -1.14 0.2" stroke="#fff" stroke-width="1" fill="none"></path></g><g transform="translate(920.5398078883429 232.01623684668908) rotate(0 76.25390421269833 0.4314117075805939)"><path d="M-0.11 15.92 C-1.98 13.3, -0.47 10.02, -0.96 -0.42 M-1.32 16.07 C-1.32 12.47, 0.04 8.79, -1.14 0.2" stroke="#fff" stroke-width="1" fill="none"></path></g><g transform="translate(920.5398078883429 232.01623684668908) rotate(0 76.25390421269833 0.4314117075805939)"><path d="M151.57 2.91 L137.83 9.17 L138.07 -3.57 L154.26 1.6" stroke="none" stroke-width="0" fill="#fff" fill-rule="evenodd"></path><path d="M153.04 1.68 C148.31 3.74, 146.76 5.23, 138.56 6.51 M151.83 1.83 C148.69 3.15, 146.89 4.38, 138.38 7.13 M139.53 8.27 C139.29 3.77, 139.27 2.08, 139.07 -5.37 M138.81 8.01 C139.23 4.12, 138.34 2.21, 139.05 -4.94 M140.1 -3.85 C142.08 -2.81, 147.1 -2.68, 152.98 1.31 M139.07 -5.31 C143.28 -3.82, 146.79 -0.65, 152.21 0.78 M152.47 1.22 C152.47 1.22, 152.47 1.22, 152.47 1.22 M152.47 1.22 C152.47 1.22, 152.47 1.22, 152.47 1.22" stroke="#fff" stroke-width="1" fill="none"></path></g></g><mask></mask><g stroke-linecap="round" transform="translate(1086.7627571513044 166.77761612579366) rotate(0 115.60794773816178 67.62686850690295)"><path d="M5.81 46.13 C5.81 46.13, 5.81 46.13, 5.81 46.13 M5.81 46.13 C5.81 46.13, 5.81 46.13, 5.81 46.13 M4.91 55.82 C9.67 46.26, 17.9 38.07, 28.3 26.34 M3.24 55.06 C10.6 47.62, 15.42 41, 29.27 24.39 M3.09 63.1 C17.3 46.55, 27.43 33.92, 39.67 18.53 M1.36 62.88 C14.57 47.29, 28.66 31.46, 38.61 21.02 M-1.78 71.66 C15.17 51.55, 31.21 35.68, 45.89 18.16 M-0.97 70.72 C11.5 57.25, 24.14 43.45, 48.37 15.52 M3.48 73.23 C20.47 52.02, 41.54 29.41, 57.31 13.43 M1.24 73.97 C19.83 55.32, 34.65 37.34, 56.08 12.66 M5.86 79.56 C21.27 60.27, 34.4 41.61, 64.34 6.85 M3.58 78.28 C26.9 50.43, 50.33 23.86, 65.45 9.44 M8 80.46 C20.42 65.86, 35.7 48.11, 69.64 9.15 M6.89 81.76 C19.9 65.97, 33.75 50.76, 71.35 7.17 M9.71 84.66 C33.13 59.23, 54.8 33.31, 76.09 4.59 M7.65 86.08 C35.63 55.16, 61.95 25.4, 76.61 7 M10.82 91.23 C38.46 57.51, 63.36 26.51, 85.76 6.91 M9.53 90.01 C36.51 60.19, 63.11 30.53, 83.8 6.06 M13.27 93.68 C27.03 75.82, 45.97 55.53, 89.26 3.68 M12.41 93.77 C32.72 70.1, 52.31 47, 89.4 3.94 M12.57 98.12 C35.34 75.39, 59.5 47.53, 96.56 3.14 M12.59 99.33 C41.02 66.64, 69.67 33.44, 95.41 3.78 M15.21 99.56 C48.64 65.45, 78.9 32.87, 101.14 0.63 M17.01 100.94 C43.15 68.29, 71.89 36.81, 102.34 2.88 M20.23 103.37 C42.81 75.55, 62.17 52.96, 106.75 1.44 M19.66 102.73 C38.91 79.96, 60.63 56.95, 108.76 1.68 M23.3 106.64 C54.78 69.56, 82.79 34.99, 113.57 0.93 M22.44 106.29 C57.51 65.61, 91.7 24.88, 114.28 2.16 M26.78 109.73 C54.82 72.89, 84.4 37.83, 118.93 1.14 M26.07 108.42 C46.52 83.91, 68.82 59.61, 119.07 0.55 M29.23 109.24 C60.99 77.17, 90.31 43.36, 122.84 0.21 M28.41 110.24 C59.1 75.24, 90.77 40.32, 124.27 0.98 M30.88 114.33 C65.04 77.22, 97.93 39.38, 129.42 0.21 M32.68 113.73 C64.49 73.55, 99.25 33.94, 128.12 1.52 M35.09 115.61 C72.27 69.95, 110.9 25.13, 132.37 4.05 M35.8 114.82 C66.88 79.96, 98.38 43.44, 134.31 3.22 M40.42 118.52 C78.01 72.18, 119.82 26.51, 139.73 4.58 M39.28 118.91 C76.58 72.75, 116.42 25.98, 139.58 3.44 M42.8 119.43 C65.67 91.15, 89.55 64, 142.06 2.48 M42.13 119.23 C70.7 88.78, 95.72 57.89, 144.65 3.9 M46.34 121.05 C77.08 87.69, 105.01 52.61, 148.5 4.12 M46.56 122.36 C83.43 77.5, 120.47 34.84, 149.11 2.78 M50.08 123.29 C80.05 88.62, 109.58 56.49, 154.96 3.46 M49.47 123.32 C83.31 86.25, 113.87 49.74, 154.46 4.71 M53.46 124.14 C79.79 95.68, 103.4 69.27, 159.54 4.64 M54.82 124.63 C79.42 94.16, 104.06 65.18, 158.28 5.67 M58.48 127.27 C90.54 88.56, 120.73 52.94, 159.98 6.39 M58.52 126.11 C88.74 89.38, 120.84 54.53, 162.56 7.49 M64.43 125.45 C97.64 88.69, 127.97 49.51, 166.46 7.12 M62.01 126.46 C102.49 79.41, 144.22 32.93, 165.25 7.18 M66.71 127.36 C92.7 96.77, 120.29 65.61, 170.43 10.59 M65.91 128.28 C87.12 103.53, 108.31 79.01, 169.94 8.73 M72.99 128.04 C102.06 92.69, 137.54 55.28, 174.67 9.5 M70.93 128.7 C112.08 83.32, 151.92 37.63, 174.75 10.98 M73.28 132.48 C98.83 100.39, 127.15 72.97, 179.47 13.1 M74.84 131.14 C98.63 103.39, 121.44 75.58, 179.26 11.34 M78.72 130.46 C101 107.88, 124.84 81.28, 182.72 13.63 M80.01 132.38 C120.88 85.09, 160.2 39.89, 183.46 12.43 M83.13 133.99 C117.97 92.77, 155.08 50.17, 186.08 13.87 M83.77 132.17 C118.87 93.11, 152.07 53.57, 186.72 15.87 M90.34 134.9 C120.42 95.11, 152.25 59.35, 189.01 14.82 M88.59 132.95 C123.94 94.89, 158.51 54.65, 190.66 16.06 M93.07 132.71 C128.57 92.32, 164.72 51.64, 196.36 18.8 M93.76 134 C123.25 97.78, 154.07 62.67, 195.48 17.54 M99.71 133.52 C130.41 99.27, 160.97 62.99, 198.41 18.83 M98.94 134.48 C135.86 92.59, 172.9 50.53, 196.89 20.53 M105.73 132.62 C133.39 103.09, 159.51 72.47, 202.3 25.23 M104.48 134.2 C128.69 104.25, 155.42 75.28, 200.32 23.73 M109.87 136.39 C128.4 113, 149.78 90.97, 202.9 25.06 M108.29 133.73 C128.7 112.61, 147.94 89.6, 202.61 25.92 M114.19 136.15 C140.08 107.85, 162.51 77.28, 208.24 26.43 M114.85 134.45 C133.53 112.32, 154.36 89.43, 208.2 28.46 M119.64 134.81 C142.42 111.03, 162.08 82.51, 208.96 31.39 M117.45 135.36 C154.58 96.16, 189.29 56.29, 209.51 30.44 M125.36 136.93 C142.18 116.34, 159.81 92.16, 214.44 33.35 M124.39 135.37 C145.24 111.83, 166.28 88.13, 213.74 32.16 M131.61 132.7 C158.4 99.33, 190.1 66.46, 218.24 33.88 M130.74 135.4 C163.27 96.62, 197.19 56.98, 217.26 36.24 M137.9 133.49 C164.65 101.76, 194.98 67.86, 218.92 39.89 M135.16 134.19 C160.53 104.73, 187.96 75.96, 219.13 38.93 M142.29 133.98 C163.05 107.72, 184.78 82.71, 224.15 41.51 M142.19 132.58 C170.43 101.26, 198.44 70.35, 222.09 40.12 M149.03 131.32 C175.6 99.94, 201.24 71.57, 226.2 42.65 M148.55 130.86 C172.73 104.18, 195.89 76.83, 224.83 44.25 M155.25 131.98 C171.61 111.43, 185.93 94.55, 227.33 49.47 M154.72 129.78 C178.52 103.63, 201.07 77.58, 226.2 48.79 M162.43 130.37 C186.19 102.27, 209.47 72.14, 227.97 52.15 M161.2 129.44 C187.65 98.95, 213.31 70.48, 228.23 52.31 M168.57 126.74 C188.63 104.43, 206.2 82.61, 229.49 56.37 M167.5 129.28 C180.49 113.63, 194.3 97.64, 229.67 56.08 M174.23 126.74 C195.77 104.93, 213.52 83.3, 231.65 59.59 M174.97 125.91 C186.62 112.96, 197.6 98.36, 232.28 60.63 M185.42 121.42 C199.65 104.71, 214.11 88.13, 234.13 64 M184.55 121.22 C199.01 104.92, 213.46 89.38, 233.16 64.77 M193.03 117.23 C206.58 101.86, 219.72 85.82, 233.28 73.64 M192.98 116.64 C203.66 104.07, 215.62 90.95, 232.29 72.96 M202.91 115.71 C211.43 102.76, 222.4 89.51, 229.43 79.92 M201.66 112.98 C212.76 101.04, 225.41 86.45, 230.74 79.06" stroke="#82c91e" stroke-width="0.5" fill="none"></path><path d="M63.04 6.74 C74.71 1.96, 92.19 0.37, 107.13 -0.27 C122.07 -0.9, 138.55 0.22, 152.69 2.92 C166.84 5.63, 180.82 10.1, 191.99 15.96 C203.16 21.83, 213.2 30.38, 219.72 38.1 C226.24 45.81, 230.1 53.71, 231.1 62.26 C232.09 70.8, 230.39 80.95, 225.69 89.36 C220.99 97.77, 212.67 106.2, 202.89 112.72 C193.11 119.24, 180.17 124.6, 166.98 128.46 C153.8 132.32, 138.45 135.34, 123.8 135.85 C109.15 136.37, 92.94 134.26, 79.08 131.52 C65.23 128.78, 51.75 124.91, 40.69 119.4 C29.63 113.9, 19.53 106.33, 12.71 98.49 C5.89 90.64, 0.96 81.02, -0.23 72.34 C-1.42 63.66, 0.9 54.59, 5.56 46.42 C10.22 38.25, 17.62 29.87, 27.75 23.32 C37.87 16.76, 59.31 9.73, 66.29 7.08 C73.28 4.43, 68.87 6.51, 69.65 7.42 M108.29 1.06 C121.99 -0.34, 137.09 1.75, 150.91 4.42 C164.72 7.08, 179.67 11.68, 191.19 17.05 C202.71 22.43, 213.22 28.91, 220.03 36.66 C226.83 44.42, 231.05 55.02, 232.02 63.57 C233 72.12, 230.48 79.68, 225.88 87.96 C221.27 96.24, 214.03 106.49, 204.39 113.24 C194.74 119.99, 181.56 124.91, 168.01 128.48 C154.47 132.04, 138.14 134.09, 123.1 134.65 C108.06 135.22, 91.51 134.6, 77.76 131.86 C64.01 129.12, 51.32 123.93, 40.58 118.23 C29.83 112.52, 19.79 105.31, 13.3 97.63 C6.81 89.95, 2.96 80.69, 1.64 72.15 C0.33 63.61, 0.69 54.65, 5.38 46.41 C10.07 38.17, 19.93 29.08, 29.77 22.73 C39.61 16.38, 51.46 11.85, 64.41 8.31 C77.36 4.78, 100.43 2.85, 107.48 1.51 C114.53 0.16, 106.47 -0.65, 106.7 0.23" stroke="#fff" stroke-width="1" fill="none"></path></g><g transform="translate(1133.0818388142443 214.1850673210546) rotate(0 69.04170227050781 20.399999999999977)"><text x="69.04170227050781" y="0" font-family="Virgil, Segoe UI Emoji" font-size="16.319999999999993px" fill="#fff" text-anchor="middle" style="white-space: pre;" direction="ltr" dominant-baseline="text-before-edge">Answer from the </text><text x="69.04170227050781" y="20.39999999999999" font-family="Virgil, Segoe UI Emoji" font-size="16.319999999999993px" fill="#fff" text-anchor="middle" style="white-space: pre;" direction="ltr" dominant-baseline="text-before-edge">given text(docs)</text></g><g stroke-linecap="round"><g transform="translate(169.29683634391753 469.06163138141824) rotate(0 81.86245512674594 -0.7146568212733371)"><path d="M0.85 -0.29 C28.18 -0.5, 136.88 -0.88, 163.89 -0.87 M-0.17 -1.49 C27.07 -1.62, 136.21 -0.33, 163.22 0.07" stroke="#fff" stroke-width="1" fill="none"></path></g><g transform="translate(169.29683634391753 469.06163138141824) rotate(0 81.86245512674594 -0.7146568212733371)"><path d="M0.42 -14.64 C-0.58 -11.54, 0.29 -6.03, 2.19 -0.66 M0.53 -15.61 C0.22 -10.82, 0.36 -6.45, 0.2 -0.53" stroke="#fff" stroke-width="1" fill="none"></path></g><g transform="translate(169.29683634391753 469.06163138141824) rotate(0 81.86245512674594 -0.7146568212733371)"><path d="M0.54 15.36 C-0.58 9.77, 0.25 6.58, 2.19 -0.66 M0.65 14.39 C0.07 9.73, 0.17 4.65, 0.2 -0.53" stroke="#fff" stroke-width="1" fill="none"></path></g><g transform="translate(169.29683634391753 469.06163138141824) rotate(0 81.86245512674594 -0.7146568212733371)"><path d="M163.09 -0.62 L150.51 7.13 L147.95 -5.55 L163.95 0.01" stroke="none" stroke-width="0" fill="#fff" fill-rule="evenodd"></path><path d="M162.86 0.73 C157.85 1.36, 154.74 4.31, 150.89 5.87 M162.97 -0.25 C158.26 1.79, 154.07 3.38, 148.9 6 M148.31 6.23 C149.24 2.78, 150.31 -0.71, 150.46 -5.65 M149.86 5.8 C149.14 1.44, 149.44 -3.21, 149.39 -6.67 M151.12 -5.44 C153.02 -3.77, 158.23 -1.64, 162.27 1.39 M149.22 -6.07 C155.22 -4.41, 159.05 -2.32, 162.68 0.64 M163.22 0.07 C163.22 0.07, 163.22 0.07, 163.22 0.07 M163.22 0.07 C163.22 0.07, 163.22 0.07, 163.22 0.07" stroke="#fff" stroke-width="1" fill="none"></path></g></g><mask></mask><g transform="translate(497.1487333509658 10) rotate(0 215.57191467285156 17.5)"><text x="431.1438293457031" y="0" font-family="Virgil, Segoe UI Emoji" font-size="28px" fill="#fff" text-anchor="end" style="white-space: pre;" direction="ltr" dominant-baseline="text-before-edge">PDF Q/A Chatbot Architecture</text></g></svg>